<svg xmlns="http://www.w3.org/2000/svg" xmlns:xlink="http://www.w3.org/1999/xlink" width="600" height="400" viewBox="0 0 2400 1600">
<defs>
  <clipPath id="clip030">
    <rect x="0" y="0" width="2400" height="1600"></rect>
  </clipPath>
</defs>
<path clip-path="url(#clip030)" d="
M0 1600 L2400 1600 L2400 0 L0 0  Z
  " fill="#ffffff" fill-rule="evenodd" fill-opacity="1"></path>
<defs>
  <clipPath id="clip031">
    <rect x="480" y="0" width="1681" height="1600"></rect>
  </clipPath>
</defs>
<path clip-path="url(#clip030)" d="
M216.922 1486.45 L2352.76 1486.45 L2352.76 123.472 L216.922 123.472  Z
  " fill="#ffffff" fill-rule="evenodd" fill-opacity="1"></path>
<defs>
  <clipPath id="clip032">
    <rect x="216" y="123" width="2137" height="1364"></rect>
  </clipPath>
</defs>
<polyline clip-path="url(#clip032)" style="stroke:#000000; stroke-linecap:butt; stroke-linejoin:round; stroke-width:2; stroke-opacity:0.1; fill:none" points="
  517.371,1486.45 517.371,123.472 
  "></polyline>
<polyline clip-path="url(#clip032)" style="stroke:#000000; stroke-linecap:butt; stroke-linejoin:round; stroke-width:2; stroke-opacity:0.1; fill:none" points="
  1029.32,1486.45 1029.32,123.472 
  "></polyline>
<polyline clip-path="url(#clip032)" style="stroke:#000000; stroke-linecap:butt; stroke-linejoin:round; stroke-width:2; stroke-opacity:0.1; fill:none" points="
  1541.26,1486.45 1541.26,123.472 
  "></polyline>
<polyline clip-path="url(#clip032)" style="stroke:#000000; stroke-linecap:butt; stroke-linejoin:round; stroke-width:2; stroke-opacity:0.1; fill:none" points="
  2053.2,1486.45 2053.2,123.472 
  "></polyline>
<polyline clip-path="url(#clip030)" style="stroke:#000000; stroke-linecap:butt; stroke-linejoin:round; stroke-width:4; stroke-opacity:1; fill:none" points="
  216.922,1486.45 2352.76,1486.45 
  "></polyline>
<polyline clip-path="url(#clip030)" style="stroke:#000000; stroke-linecap:butt; stroke-linejoin:round; stroke-width:4; stroke-opacity:1; fill:none" points="
  517.371,1486.45 517.371,1467.55 
  "></polyline>
<polyline clip-path="url(#clip030)" style="stroke:#000000; stroke-linecap:butt; stroke-linejoin:round; stroke-width:4; stroke-opacity:1; fill:none" points="
  1029.32,1486.45 1029.32,1467.55 
  "></polyline>
<polyline clip-path="url(#clip030)" style="stroke:#000000; stroke-linecap:butt; stroke-linejoin:round; stroke-width:4; stroke-opacity:1; fill:none" points="
  1541.26,1486.45 1541.26,1467.55 
  "></polyline>
<polyline clip-path="url(#clip030)" style="stroke:#000000; stroke-linecap:butt; stroke-linejoin:round; stroke-width:4; stroke-opacity:1; fill:none" points="
  2053.2,1486.45 2053.2,1467.55 
  "></polyline>
<path clip-path="url(#clip030)" d="M517.371 1517.37 Q513.76 1517.37 511.931 1520.93 Q510.126 1524.47 510.126 1531.6 Q510.126 1538.71 511.931 1542.27 Q513.76 1545.82 517.371 1545.82 Q521.005 1545.82 522.811 1542.27 Q524.639 1538.71 524.639 1531.6 Q524.639 1524.47 522.811 1520.93 Q521.005 1517.37 517.371 1517.37 M517.371 1513.66 Q523.181 1513.66 526.237 1518.27 Q529.315 1522.85 529.315 1531.6 Q529.315 1540.33 526.237 1544.94 Q523.181 1549.52 517.371 1549.52 Q511.561 1549.52 508.482 1544.94 Q505.427 1540.33 505.427 1531.6 Q505.427 1522.85 508.482 1518.27 Q511.561 1513.66 517.371 1513.66 Z" fill="#000000" fill-rule="evenodd" fill-opacity="1"></path><path clip-path="url(#clip030)" d="M993.008 1544.91 L1009.33 1544.91 L1009.33 1548.85 L987.383 1548.85 L987.383 1544.91 Q990.045 1542.16 994.628 1537.53 Q999.235 1532.88 1000.42 1531.53 Q1002.66 1529.01 1003.54 1527.27 Q1004.44 1525.51 1004.44 1523.82 Q1004.44 1521.07 1002.5 1519.33 Q1000.58 1517.6 997.475 1517.6 Q995.276 1517.6 992.823 1518.36 Q990.392 1519.13 987.614 1520.68 L987.614 1515.95 Q990.438 1514.82 992.892 1514.24 Q995.346 1513.66 997.383 1513.66 Q1002.75 1513.66 1005.95 1516.35 Q1009.14 1519.03 1009.14 1523.52 Q1009.14 1525.65 1008.33 1527.57 Q1007.54 1529.47 1005.44 1532.07 Q1004.86 1532.74 1001.76 1535.95 Q998.656 1539.15 993.008 1544.91 Z" fill="#000000" fill-rule="evenodd" fill-opacity="1"></path><path clip-path="url(#clip030)" d="M1029.14 1517.37 Q1025.53 1517.37 1023.7 1520.93 Q1021.9 1524.47 1021.9 1531.6 Q1021.9 1538.71 1023.7 1542.27 Q1025.53 1545.82 1029.14 1545.82 Q1032.78 1545.82 1034.58 1542.27 Q1036.41 1538.71 1036.41 1531.6 Q1036.41 1524.47 1034.58 1520.93 Q1032.78 1517.37 1029.14 1517.37 M1029.14 1513.66 Q1034.95 1513.66 1038.01 1518.27 Q1041.09 1522.85 1041.09 1531.6 Q1041.09 1540.33 1038.01 1544.94 Q1034.95 1549.52 1029.14 1549.52 Q1023.33 1549.52 1020.25 1544.94 Q1017.2 1540.33 1017.2 1531.6 Q1017.2 1522.85 1020.25 1518.27 Q1023.33 1513.66 1029.14 1513.66 Z" fill="#000000" fill-rule="evenodd" fill-opacity="1"></path><path clip-path="url(#clip030)" d="M1059.3 1517.37 Q1055.69 1517.37 1053.86 1520.93 Q1052.06 1524.47 1052.06 1531.6 Q1052.06 1538.71 1053.86 1542.27 Q1055.69 1545.82 1059.3 1545.82 Q1062.94 1545.82 1064.74 1542.27 Q1066.57 1538.71 1066.57 1531.6 Q1066.57 1524.47 1064.74 1520.93 Q1062.94 1517.37 1059.3 1517.37 M1059.3 1513.66 Q1065.11 1513.66 1068.17 1518.27 Q1071.25 1522.85 1071.25 1531.6 Q1071.25 1540.33 1068.17 1544.94 Q1065.11 1549.52 1059.3 1549.52 Q1053.49 1549.52 1050.41 1544.94 Q1047.36 1540.33 1047.36 1531.6 Q1047.36 1522.85 1050.41 1518.27 Q1053.49 1513.66 1059.3 1513.66 Z" fill="#000000" fill-rule="evenodd" fill-opacity="1"></path><path clip-path="url(#clip030)" d="M1514.35 1518.36 L1502.54 1536.81 L1514.35 1536.81 L1514.35 1518.36 M1513.12 1514.29 L1519 1514.29 L1519 1536.81 L1523.93 1536.81 L1523.93 1540.7 L1519 1540.7 L1519 1548.85 L1514.35 1548.85 L1514.35 1540.7 L1498.75 1540.7 L1498.75 1536.19 L1513.12 1514.29 Z" fill="#000000" fill-rule="evenodd" fill-opacity="1"></path><path clip-path="url(#clip030)" d="M1541.67 1517.37 Q1538.05 1517.37 1536.23 1520.93 Q1534.42 1524.47 1534.42 1531.6 Q1534.42 1538.71 1536.23 1542.27 Q1538.05 1545.82 1541.67 1545.82 Q1545.3 1545.82 1547.1 1542.27 Q1548.93 1538.71 1548.93 1531.6 Q1548.93 1524.47 1547.1 1520.93 Q1545.3 1517.37 1541.67 1517.37 M1541.67 1513.66 Q1547.48 1513.66 1550.53 1518.27 Q1553.61 1522.85 1553.61 1531.6 Q1553.61 1540.33 1550.53 1544.94 Q1547.48 1549.52 1541.67 1549.52 Q1535.85 1549.52 1532.78 1544.94 Q1529.72 1540.33 1529.72 1531.6 Q1529.72 1522.85 1532.78 1518.27 Q1535.85 1513.66 1541.67 1513.66 Z" fill="#000000" fill-rule="evenodd" fill-opacity="1"></path><path clip-path="url(#clip030)" d="M1571.83 1517.37 Q1568.22 1517.37 1566.39 1520.93 Q1564.58 1524.47 1564.58 1531.6 Q1564.58 1538.71 1566.39 1542.27 Q1568.22 1545.82 1571.83 1545.82 Q1575.46 1545.82 1577.27 1542.27 Q1579.1 1538.71 1579.1 1531.6 Q1579.1 1524.47 1577.27 1520.93 Q1575.46 1517.37 1571.83 1517.37 M1571.83 1513.66 Q1577.64 1513.66 1580.69 1518.27 Q1583.77 1522.85 1583.77 1531.6 Q1583.77 1540.33 1580.69 1544.94 Q1577.64 1549.52 1571.83 1549.52 Q1566.02 1549.52 1562.94 1544.94 Q1559.88 1540.33 1559.88 1531.6 Q1559.88 1522.85 1562.94 1518.27 Q1566.02 1513.66 1571.83 1513.66 Z" fill="#000000" fill-rule="evenodd" fill-opacity="1"></path><path clip-path="url(#clip030)" d="M2023.53 1529.7 Q2020.38 1529.7 2018.53 1531.86 Q2016.7 1534.01 2016.7 1537.76 Q2016.7 1541.49 2018.53 1543.66 Q2020.38 1545.82 2023.53 1545.82 Q2026.68 1545.82 2028.51 1543.66 Q2030.36 1541.49 2030.36 1537.76 Q2030.36 1534.01 2028.51 1531.86 Q2026.68 1529.7 2023.53 1529.7 M2032.81 1515.05 L2032.81 1519.31 Q2031.05 1518.48 2029.25 1518.04 Q2027.46 1517.6 2025.7 1517.6 Q2021.08 1517.6 2018.62 1520.72 Q2016.19 1523.85 2015.84 1530.17 Q2017.21 1528.15 2019.27 1527.09 Q2021.33 1526 2023.81 1526 Q2029.01 1526 2032.02 1529.17 Q2035.06 1532.32 2035.06 1537.76 Q2035.06 1543.08 2031.91 1546.3 Q2028.76 1549.52 2023.53 1549.52 Q2017.53 1549.52 2014.36 1544.94 Q2011.19 1540.33 2011.19 1531.6 Q2011.19 1523.41 2015.08 1518.55 Q2018.97 1513.66 2025.52 1513.66 Q2027.28 1513.66 2029.06 1514.01 Q2030.87 1514.36 2032.81 1515.05 Z" fill="#000000" fill-rule="evenodd" fill-opacity="1"></path><path clip-path="url(#clip030)" d="M2053.11 1517.37 Q2049.5 1517.37 2047.67 1520.93 Q2045.87 1524.47 2045.87 1531.6 Q2045.87 1538.71 2047.67 1542.27 Q2049.5 1545.82 2053.11 1545.82 Q2056.75 1545.82 2058.55 1542.27 Q2060.38 1538.71 2060.38 1531.6 Q2060.38 1524.47 2058.55 1520.93 Q2056.75 1517.37 2053.11 1517.37 M2053.11 1513.66 Q2058.92 1513.66 2061.98 1518.27 Q2065.06 1522.85 2065.06 1531.6 Q2065.06 1540.33 2061.98 1544.94 Q2058.92 1549.52 2053.11 1549.52 Q2047.3 1549.52 2044.22 1544.94 Q2041.17 1540.33 2041.17 1531.6 Q2041.17 1522.85 2044.22 1518.27 Q2047.3 1513.66 2053.11 1513.66 Z" fill="#000000" fill-rule="evenodd" fill-opacity="1"></path><path clip-path="url(#clip030)" d="M2083.27 1517.37 Q2079.66 1517.37 2077.83 1520.93 Q2076.03 1524.47 2076.03 1531.6 Q2076.03 1538.71 2077.83 1542.27 Q2079.66 1545.82 2083.27 1545.82 Q2086.91 1545.82 2088.71 1542.27 Q2090.54 1538.71 2090.54 1531.6 Q2090.54 1524.47 2088.71 1520.93 Q2086.91 1517.37 2083.27 1517.37 M2083.27 1513.66 Q2089.08 1513.66 2092.14 1518.27 Q2095.22 1522.85 2095.22 1531.6 Q2095.22 1540.33 2092.14 1544.94 Q2089.08 1549.52 2083.27 1549.52 Q2077.46 1549.52 2074.39 1544.94 Q2071.33 1540.33 2071.33 1531.6 Q2071.33 1522.85 2074.39 1518.27 Q2077.46 1513.66 2083.27 1513.66 Z" fill="#000000" fill-rule="evenodd" fill-opacity="1"></path><polyline clip-path="url(#clip032)" style="stroke:#000000; stroke-linecap:butt; stroke-linejoin:round; stroke-width:2; stroke-opacity:0.1; fill:none" points="
  216.922,1447.94 2352.76,1447.94 
  "></polyline>
<polyline clip-path="url(#clip032)" style="stroke:#000000; stroke-linecap:butt; stroke-linejoin:round; stroke-width:2; stroke-opacity:0.1; fill:none" points="
  216.922,1156.37 2352.76,1156.37 
  "></polyline>
<polyline clip-path="url(#clip032)" style="stroke:#000000; stroke-linecap:butt; stroke-linejoin:round; stroke-width:2; stroke-opacity:0.1; fill:none" points="
  216.922,864.796 2352.76,864.796 
  "></polyline>
<polyline clip-path="url(#clip032)" style="stroke:#000000; stroke-linecap:butt; stroke-linejoin:round; stroke-width:2; stroke-opacity:0.1; fill:none" points="
  216.922,573.222 2352.76,573.222 
  "></polyline>
<polyline clip-path="url(#clip032)" style="stroke:#000000; stroke-linecap:butt; stroke-linejoin:round; stroke-width:2; stroke-opacity:0.1; fill:none" points="
  216.922,281.648 2352.76,281.648 
  "></polyline>
<polyline clip-path="url(#clip030)" style="stroke:#000000; stroke-linecap:butt; stroke-linejoin:round; stroke-width:4; stroke-opacity:1; fill:none" points="
  216.922,1486.45 216.922,123.472 
  "></polyline>
<polyline clip-path="url(#clip030)" style="stroke:#000000; stroke-linecap:butt; stroke-linejoin:round; stroke-width:4; stroke-opacity:1; fill:none" points="
  216.922,1447.94 235.82,1447.94 
  "></polyline>
<polyline clip-path="url(#clip030)" style="stroke:#000000; stroke-linecap:butt; stroke-linejoin:round; stroke-width:4; stroke-opacity:1; fill:none" points="
  216.922,1156.37 235.82,1156.37 
  "></polyline>
<polyline clip-path="url(#clip030)" style="stroke:#000000; stroke-linecap:butt; stroke-linejoin:round; stroke-width:4; stroke-opacity:1; fill:none" points="
  216.922,864.796 235.82,864.796 
  "></polyline>
<polyline clip-path="url(#clip030)" style="stroke:#000000; stroke-linecap:butt; stroke-linejoin:round; stroke-width:4; stroke-opacity:1; fill:none" points="
  216.922,573.222 235.82,573.222 
  "></polyline>
<polyline clip-path="url(#clip030)" style="stroke:#000000; stroke-linecap:butt; stroke-linejoin:round; stroke-width:4; stroke-opacity:1; fill:none" points="
  216.922,281.648 235.82,281.648 
  "></polyline>
<path clip-path="url(#clip030)" d="M63.4226 1433.74 Q59.8115 1433.74 57.9828 1437.31 Q56.1773 1440.85 56.1773 1447.98 Q56.1773 1455.08 57.9828 1458.65 Q59.8115 1462.19 63.4226 1462.19 Q67.0569 1462.19 68.8624 1458.65 Q70.6911 1455.08 70.6911 1447.98 Q70.6911 1440.85 68.8624 1437.31 Q67.0569 1433.74 63.4226 1433.74 M63.4226 1430.04 Q69.2328 1430.04 72.2883 1434.65 Q75.367 1439.23 75.367 1447.98 Q75.367 1456.71 72.2883 1461.31 Q69.2328 1465.89 63.4226 1465.89 Q57.6125 1465.89 54.5338 1461.31 Q51.4782 1456.71 51.4782 1447.98 Q51.4782 1439.23 54.5338 1434.65 Q57.6125 1430.04 63.4226 1430.04 Z" fill="#000000" fill-rule="evenodd" fill-opacity="1"></path><path clip-path="url(#clip030)" d="M83.5845 1459.34 L88.4688 1459.34 L88.4688 1465.22 L83.5845 1465.22 L83.5845 1459.34 Z" fill="#000000" fill-rule="evenodd" fill-opacity="1"></path><path clip-path="url(#clip030)" d="M108.654 1433.74 Q105.043 1433.74 103.214 1437.31 Q101.409 1440.85 101.409 1447.98 Q101.409 1455.08 103.214 1458.65 Q105.043 1462.19 108.654 1462.19 Q112.288 1462.19 114.094 1458.65 Q115.922 1455.08 115.922 1447.98 Q115.922 1440.85 114.094 1437.31 Q112.288 1433.74 108.654 1433.74 M108.654 1430.04 Q114.464 1430.04 117.52 1434.65 Q120.598 1439.23 120.598 1447.98 Q120.598 1456.71 117.52 1461.31 Q114.464 1465.89 108.654 1465.89 Q102.844 1465.89 99.765 1461.31 Q96.7095 1456.71 96.7095 1447.98 Q96.7095 1439.23 99.765 1434.65 Q102.844 1430.04 108.654 1430.04 Z" fill="#000000" fill-rule="evenodd" fill-opacity="1"></path><path clip-path="url(#clip030)" d="M138.816 1433.74 Q135.205 1433.74 133.376 1437.31 Q131.57 1440.85 131.57 1447.98 Q131.57 1455.08 133.376 1458.65 Q135.205 1462.19 138.816 1462.19 Q142.45 1462.19 144.256 1458.65 Q146.084 1455.08 146.084 1447.98 Q146.084 1440.85 144.256 1437.31 Q142.45 1433.74 138.816 1433.74 M138.816 1430.04 Q144.626 1430.04 147.681 1434.65 Q150.76 1439.23 150.76 1447.98 Q150.76 1456.71 147.681 1461.31 Q144.626 1465.89 138.816 1465.89 Q133.006 1465.89 129.927 1461.31 Q126.871 1456.71 126.871 1447.98 Q126.871 1439.23 129.927 1434.65 Q133.006 1430.04 138.816 1430.04 Z" fill="#000000" fill-rule="evenodd" fill-opacity="1"></path><path clip-path="url(#clip030)" d="M168.978 1433.74 Q165.367 1433.74 163.538 1437.31 Q161.732 1440.85 161.732 1447.98 Q161.732 1455.08 163.538 1458.65 Q165.367 1462.19 168.978 1462.19 Q172.612 1462.19 174.417 1458.65 Q176.246 1455.08 176.246 1447.98 Q176.246 1440.85 174.417 1437.31 Q172.612 1433.74 168.978 1433.74 M168.978 1430.04 Q174.788 1430.04 177.843 1434.65 Q180.922 1439.23 180.922 1447.98 Q180.922 1456.71 177.843 1461.31 Q174.788 1465.89 168.978 1465.89 Q163.167 1465.89 160.089 1461.31 Q157.033 1456.71 157.033 1447.98 Q157.033 1439.23 160.089 1434.65 Q163.167 1430.04 168.978 1430.04 Z" fill="#000000" fill-rule="evenodd" fill-opacity="1"></path><path clip-path="url(#clip030)" d="M64.6495 1142.17 Q61.0384 1142.17 59.2097 1145.73 Q57.4041 1149.27 57.4041 1156.4 Q57.4041 1163.51 59.2097 1167.08 Q61.0384 1170.62 64.6495 1170.62 Q68.2837 1170.62 70.0892 1167.08 Q71.9179 1163.51 71.9179 1156.4 Q71.9179 1149.27 70.0892 1145.73 Q68.2837 1142.17 64.6495 1142.17 M64.6495 1138.46 Q70.4596 1138.46 73.5152 1143.07 Q76.5938 1147.65 76.5938 1156.4 Q76.5938 1165.13 73.5152 1169.74 Q70.4596 1174.32 64.6495 1174.32 Q58.8393 1174.32 55.7606 1169.74 Q52.7051 1165.13 52.7051 1156.4 Q52.7051 1147.65 55.7606 1143.07 Q58.8393 1138.46 64.6495 1138.46 Z" fill="#000000" fill-rule="evenodd" fill-opacity="1"></path><path clip-path="url(#clip030)" d="M84.8114 1167.77 L89.6956 1167.77 L89.6956 1173.65 L84.8114 1173.65 L84.8114 1167.77 Z" fill="#000000" fill-rule="evenodd" fill-opacity="1"></path><path clip-path="url(#clip030)" d="M109.881 1142.17 Q106.27 1142.17 104.441 1145.73 Q102.635 1149.27 102.635 1156.4 Q102.635 1163.51 104.441 1167.08 Q106.27 1170.62 109.881 1170.62 Q113.515 1170.62 115.32 1167.08 Q117.149 1163.51 117.149 1156.4 Q117.149 1149.27 115.32 1145.73 Q113.515 1142.17 109.881 1142.17 M109.881 1138.46 Q115.691 1138.46 118.746 1143.07 Q121.825 1147.65 121.825 1156.4 Q121.825 1165.13 118.746 1169.74 Q115.691 1174.32 109.881 1174.32 Q104.071 1174.32 100.992 1169.74 Q97.9363 1165.13 97.9363 1156.4 Q97.9363 1147.65 100.992 1143.07 Q104.071 1138.46 109.881 1138.46 Z" fill="#000000" fill-rule="evenodd" fill-opacity="1"></path><path clip-path="url(#clip030)" d="M140.043 1142.17 Q136.431 1142.17 134.603 1145.73 Q132.797 1149.27 132.797 1156.4 Q132.797 1163.51 134.603 1167.08 Q136.431 1170.62 140.043 1170.62 Q143.677 1170.62 145.482 1167.08 Q147.311 1163.51 147.311 1156.4 Q147.311 1149.27 145.482 1145.73 Q143.677 1142.17 140.043 1142.17 M140.043 1138.46 Q145.853 1138.46 148.908 1143.07 Q151.987 1147.65 151.987 1156.4 Q151.987 1165.13 148.908 1169.74 Q145.853 1174.32 140.043 1174.32 Q134.232 1174.32 131.154 1169.74 Q128.098 1165.13 128.098 1156.4 Q128.098 1147.65 131.154 1143.07 Q134.232 1138.46 140.043 1138.46 Z" fill="#000000" fill-rule="evenodd" fill-opacity="1"></path><path clip-path="url(#clip030)" d="M161.015 1169.71 L168.654 1169.71 L168.654 1143.35 L160.343 1145.02 L160.343 1140.76 L168.607 1139.09 L173.283 1139.09 L173.283 1169.71 L180.922 1169.71 L180.922 1173.65 L161.015 1173.65 L161.015 1169.71 Z" fill="#000000" fill-rule="evenodd" fill-opacity="1"></path><path clip-path="url(#clip030)" d="M65.0198 850.594 Q61.4087 850.594 59.58 854.159 Q57.7745 857.701 57.7745 864.83 Q57.7745 871.937 59.58 875.502 Q61.4087 879.043 65.0198 879.043 Q68.6541 879.043 70.4596 875.502 Q72.2883 871.937 72.2883 864.83 Q72.2883 857.701 70.4596 854.159 Q68.6541 850.594 65.0198 850.594 M65.0198 846.891 Q70.83 846.891 73.8855 851.497 Q76.9642 856.08 76.9642 864.83 Q76.9642 873.557 73.8855 878.164 Q70.83 882.747 65.0198 882.747 Q59.2097 882.747 56.131 878.164 Q53.0754 873.557 53.0754 864.83 Q53.0754 856.08 56.131 851.497 Q59.2097 846.891 65.0198 846.891 Z" fill="#000000" fill-rule="evenodd" fill-opacity="1"></path><path clip-path="url(#clip030)" d="M85.1818 876.196 L90.066 876.196 L90.066 882.076 L85.1818 882.076 L85.1818 876.196 Z" fill="#000000" fill-rule="evenodd" fill-opacity="1"></path><path clip-path="url(#clip030)" d="M110.251 850.594 Q106.64 850.594 104.811 854.159 Q103.006 857.701 103.006 864.83 Q103.006 871.937 104.811 875.502 Q106.64 879.043 110.251 879.043 Q113.885 879.043 115.691 875.502 Q117.52 871.937 117.52 864.83 Q117.52 857.701 115.691 854.159 Q113.885 850.594 110.251 850.594 M110.251 846.891 Q116.061 846.891 119.117 851.497 Q122.195 856.08 122.195 864.83 Q122.195 873.557 119.117 878.164 Q116.061 882.747 110.251 882.747 Q104.441 882.747 101.362 878.164 Q98.3067 873.557 98.3067 864.83 Q98.3067 856.08 101.362 851.497 Q104.441 846.891 110.251 846.891 Z" fill="#000000" fill-rule="evenodd" fill-opacity="1"></path><path clip-path="url(#clip030)" d="M140.413 850.594 Q136.802 850.594 134.973 854.159 Q133.168 857.701 133.168 864.83 Q133.168 871.937 134.973 875.502 Q136.802 879.043 140.413 879.043 Q144.047 879.043 145.853 875.502 Q147.681 871.937 147.681 864.83 Q147.681 857.701 145.853 854.159 Q144.047 850.594 140.413 850.594 M140.413 846.891 Q146.223 846.891 149.279 851.497 Q152.357 856.08 152.357 864.83 Q152.357 873.557 149.279 878.164 Q146.223 882.747 140.413 882.747 Q134.603 882.747 131.524 878.164 Q128.469 873.557 128.469 864.83 Q128.469 856.08 131.524 851.497 Q134.603 846.891 140.413 846.891 Z" fill="#000000" fill-rule="evenodd" fill-opacity="1"></path><path clip-path="url(#clip030)" d="M164.603 878.14 L180.922 878.14 L180.922 882.076 L158.978 882.076 L158.978 878.14 Q161.64 875.386 166.223 870.756 Q170.829 866.103 172.01 864.761 Q174.255 862.238 175.135 860.502 Q176.038 858.742 176.038 857.053 Q176.038 854.298 174.093 852.562 Q172.172 850.826 169.07 850.826 Q166.871 850.826 164.417 851.59 Q161.987 852.354 159.209 853.904 L159.209 849.182 Q162.033 848.048 164.487 847.469 Q166.941 846.891 168.978 846.891 Q174.348 846.891 177.542 849.576 Q180.737 852.261 180.737 856.752 Q180.737 858.881 179.927 860.803 Q179.14 862.701 177.033 865.293 Q176.454 865.965 173.353 869.182 Q170.251 872.377 164.603 878.14 Z" fill="#000000" fill-rule="evenodd" fill-opacity="1"></path><path clip-path="url(#clip030)" d="M64.0708 559.02 Q60.4597 559.02 58.631 562.585 Q56.8254 566.127 56.8254 573.256 Q56.8254 580.363 58.631 583.928 Q60.4597 587.469 64.0708 587.469 Q67.705 587.469 69.5105 583.928 Q71.3392 580.363 71.3392 573.256 Q71.3392 566.127 69.5105 562.585 Q67.705 559.02 64.0708 559.02 M64.0708 555.317 Q69.8809 555.317 72.9365 559.923 Q76.0151 564.506 76.0151 573.256 Q76.0151 581.983 72.9365 586.59 Q69.8809 591.173 64.0708 591.173 Q58.2606 591.173 55.1819 586.59 Q52.1264 581.983 52.1264 573.256 Q52.1264 564.506 55.1819 559.923 Q58.2606 555.317 64.0708 555.317 Z" fill="#000000" fill-rule="evenodd" fill-opacity="1"></path><path clip-path="url(#clip030)" d="M84.2327 584.622 L89.1169 584.622 L89.1169 590.502 L84.2327 590.502 L84.2327 584.622 Z" fill="#000000" fill-rule="evenodd" fill-opacity="1"></path><path clip-path="url(#clip030)" d="M109.302 559.02 Q105.691 559.02 103.862 562.585 Q102.057 566.127 102.057 573.256 Q102.057 580.363 103.862 583.928 Q105.691 587.469 109.302 587.469 Q112.936 587.469 114.742 583.928 Q116.57 580.363 116.57 573.256 Q116.57 566.127 114.742 562.585 Q112.936 559.02 109.302 559.02 M109.302 555.317 Q115.112 555.317 118.168 559.923 Q121.246 564.506 121.246 573.256 Q121.246 581.983 118.168 586.59 Q115.112 591.173 109.302 591.173 Q103.492 591.173 100.413 586.59 Q97.3576 581.983 97.3576 573.256 Q97.3576 564.506 100.413 559.923 Q103.492 555.317 109.302 555.317 Z" fill="#000000" fill-rule="evenodd" fill-opacity="1"></path><path clip-path="url(#clip030)" d="M139.464 559.02 Q135.853 559.02 134.024 562.585 Q132.219 566.127 132.219 573.256 Q132.219 580.363 134.024 583.928 Q135.853 587.469 139.464 587.469 Q143.098 587.469 144.904 583.928 Q146.732 580.363 146.732 573.256 Q146.732 566.127 144.904 562.585 Q143.098 559.02 139.464 559.02 M139.464 555.317 Q145.274 555.317 148.33 559.923 Q151.408 564.506 151.408 573.256 Q151.408 581.983 148.33 586.59 Q145.274 591.173 139.464 591.173 Q133.654 591.173 130.575 586.59 Q127.519 581.983 127.519 573.256 Q127.519 564.506 130.575 559.923 Q133.654 555.317 139.464 555.317 Z" fill="#000000" fill-rule="evenodd" fill-opacity="1"></path><path clip-path="url(#clip030)" d="M173.792 571.867 Q177.149 572.585 179.024 574.854 Q180.922 577.122 180.922 580.455 Q180.922 585.571 177.403 588.372 Q173.885 591.173 167.404 591.173 Q165.228 591.173 162.913 590.733 Q160.621 590.316 158.167 589.46 L158.167 584.946 Q160.112 586.08 162.427 586.659 Q164.742 587.238 167.265 587.238 Q171.663 587.238 173.954 585.502 Q176.269 583.766 176.269 580.455 Q176.269 577.4 174.116 575.687 Q171.987 573.951 168.167 573.951 L164.14 573.951 L164.14 570.108 L168.353 570.108 Q171.802 570.108 173.63 568.742 Q175.459 567.354 175.459 564.761 Q175.459 562.099 173.561 560.687 Q171.686 559.252 168.167 559.252 Q166.246 559.252 164.047 559.668 Q161.848 560.085 159.209 560.965 L159.209 556.798 Q161.871 556.057 164.186 555.687 Q166.524 555.317 168.584 555.317 Q173.908 555.317 177.01 557.747 Q180.112 560.155 180.112 564.275 Q180.112 567.145 178.468 569.136 Q176.825 571.104 173.792 571.867 Z" fill="#000000" fill-rule="evenodd" fill-opacity="1"></path><path clip-path="url(#clip030)" d="M62.9365 267.446 Q59.3254 267.446 57.4967 271.011 Q55.6912 274.553 55.6912 281.682 Q55.6912 288.789 57.4967 292.354 Q59.3254 295.895 62.9365 295.895 Q66.5707 295.895 68.3763 292.354 Q70.205 288.789 70.205 281.682 Q70.205 274.553 68.3763 271.011 Q66.5707 267.446 62.9365 267.446 M62.9365 263.743 Q68.7467 263.743 71.8022 268.349 Q74.8809 272.932 74.8809 281.682 Q74.8809 290.409 71.8022 295.016 Q68.7467 299.599 62.9365 299.599 Q57.1264 299.599 54.0477 295.016 Q50.9921 290.409 50.9921 281.682 Q50.9921 272.932 54.0477 268.349 Q57.1264 263.743 62.9365 263.743 Z" fill="#000000" fill-rule="evenodd" fill-opacity="1"></path><path clip-path="url(#clip030)" d="M83.0984 293.048 L87.9827 293.048 L87.9827 298.928 L83.0984 298.928 L83.0984 293.048 Z" fill="#000000" fill-rule="evenodd" fill-opacity="1"></path><path clip-path="url(#clip030)" d="M108.168 267.446 Q104.557 267.446 102.728 271.011 Q100.922 274.553 100.922 281.682 Q100.922 288.789 102.728 292.354 Q104.557 295.895 108.168 295.895 Q111.802 295.895 113.608 292.354 Q115.436 288.789 115.436 281.682 Q115.436 274.553 113.608 271.011 Q111.802 267.446 108.168 267.446 M108.168 263.743 Q113.978 263.743 117.033 268.349 Q120.112 272.932 120.112 281.682 Q120.112 290.409 117.033 295.016 Q113.978 299.599 108.168 299.599 Q102.358 299.599 99.2789 295.016 Q96.2234 290.409 96.2234 281.682 Q96.2234 272.932 99.2789 268.349 Q102.358 263.743 108.168 263.743 Z" fill="#000000" fill-rule="evenodd" fill-opacity="1"></path><path clip-path="url(#clip030)" d="M138.33 267.446 Q134.719 267.446 132.89 271.011 Q131.084 274.553 131.084 281.682 Q131.084 288.789 132.89 292.354 Q134.719 295.895 138.33 295.895 Q141.964 295.895 143.769 292.354 Q145.598 288.789 145.598 281.682 Q145.598 274.553 143.769 271.011 Q141.964 267.446 138.33 267.446 M138.33 263.743 Q144.14 263.743 147.195 268.349 Q150.274 272.932 150.274 281.682 Q150.274 290.409 147.195 295.016 Q144.14 299.599 138.33 299.599 Q132.519 299.599 129.441 295.016 Q126.385 290.409 126.385 281.682 Q126.385 272.932 129.441 268.349 Q132.519 263.743 138.33 263.743 Z" fill="#000000" fill-rule="evenodd" fill-opacity="1"></path><path clip-path="url(#clip030)" d="M171.339 268.442 L159.533 286.891 L171.339 286.891 L171.339 268.442 M170.112 264.368 L175.991 264.368 L175.991 286.891 L180.922 286.891 L180.922 290.78 L175.991 290.78 L175.991 298.928 L171.339 298.928 L171.339 290.78 L155.737 290.78 L155.737 286.266 L170.112 264.368 Z" fill="#000000" fill-rule="evenodd" fill-opacity="1"></path><path clip-path="url(#clip030)" d="M595.416 18.8205 L595.416 65.8515 L605.3 65.8515 Q617.817 65.8515 623.61 60.1802 Q629.443 54.509 629.443 42.2752 Q629.443 30.1225 623.61 24.4918 Q617.817 18.8205 605.3 18.8205 L595.416 18.8205 M587.233 12.096 L604.044 12.096 Q621.625 12.096 629.848 19.4281 Q638.072 26.7198 638.072 42.2752 Q638.072 57.9117 629.808 65.2439 Q621.544 72.576 604.044 72.576 L587.233 72.576 L587.233 12.096 Z" fill="#000000" fill-rule="evenodd" fill-opacity="1"></path><path clip-path="url(#clip030)" d="M689.599 48.0275 L689.599 51.6733 L655.328 51.6733 Q655.815 59.3701 659.946 63.421 Q664.119 67.4314 671.532 67.4314 Q675.826 67.4314 679.836 66.3781 Q683.887 65.3249 687.857 63.2184 L687.857 70.267 Q683.847 71.9684 679.634 72.8596 Q675.421 73.7508 671.086 73.7508 Q660.23 73.7508 653.87 67.4314 Q647.551 61.1119 647.551 50.3365 Q647.551 39.1965 653.546 32.6746 Q659.582 26.1121 669.79 26.1121 Q678.945 26.1121 684.252 32.0264 Q689.599 37.9003 689.599 48.0275 M682.145 45.84 Q682.064 39.7232 678.702 36.0774 Q675.38 32.4315 669.871 32.4315 Q663.633 32.4315 659.865 35.9558 Q656.139 39.4801 655.571 45.8805 L682.145 45.84 Z" fill="#000000" fill-rule="evenodd" fill-opacity="1"></path><path clip-path="url(#clip030)" d="M739.547 45.1919 L739.547 72.576 L732.093 72.576 L732.093 45.4349 Q732.093 38.994 729.582 35.7938 Q727.07 32.5936 722.047 32.5936 Q716.011 32.5936 712.527 36.4419 Q709.043 40.2903 709.043 46.9338 L709.043 72.576 L701.549 72.576 L701.549 27.2059 L709.043 27.2059 L709.043 34.2544 Q711.717 30.163 715.322 28.1376 Q718.968 26.1121 723.708 26.1121 Q731.526 26.1121 735.536 30.9732 Q739.547 35.7938 739.547 45.1919 Z" fill="#000000" fill-rule="evenodd" fill-opacity="1"></path><path clip-path="url(#clip030)" d="M783.337 28.5427 L783.337 35.5912 Q780.177 33.9709 776.775 33.1607 Q773.372 32.3505 769.726 32.3505 Q764.176 32.3505 761.381 34.0519 Q758.626 35.7533 758.626 39.156 Q758.626 41.7486 760.611 43.2475 Q762.596 44.7058 768.592 46.0426 L771.144 46.6097 Q779.084 48.3111 782.405 51.4303 Q785.768 54.509 785.768 60.0587 Q785.768 66.3781 780.744 70.0644 Q775.762 73.7508 767.012 73.7508 Q763.366 73.7508 759.396 73.0216 Q755.467 72.3329 751.092 70.9151 L751.092 63.2184 Q755.224 65.3654 759.234 66.4591 Q763.245 67.5124 767.174 67.5124 Q772.44 67.5124 775.276 65.73 Q778.111 63.9071 778.111 60.6258 Q778.111 57.5877 776.045 55.9673 Q774.02 54.3469 767.093 52.8481 L764.5 52.2405 Q757.573 50.7821 754.495 47.7845 Q751.416 44.7463 751.416 39.4801 Q751.416 33.0797 755.953 29.5959 Q760.49 26.1121 768.835 26.1121 Q772.967 26.1121 776.613 26.7198 Q780.258 27.3274 783.337 28.5427 Z" fill="#000000" fill-rule="evenodd" fill-opacity="1"></path><path clip-path="url(#clip030)" d="M797.637 27.2059 L805.09 27.2059 L805.09 72.576 L797.637 72.576 L797.637 27.2059 M797.637 9.54393 L805.09 9.54393 L805.09 18.9825 L797.637 18.9825 L797.637 9.54393 Z" fill="#000000" fill-rule="evenodd" fill-opacity="1"></path><path clip-path="url(#clip030)" d="M828.059 14.324 L828.059 27.2059 L843.412 27.2059 L843.412 32.9987 L828.059 32.9987 L828.059 57.6282 Q828.059 63.1779 829.558 64.7578 Q831.097 66.3376 835.756 66.3376 L843.412 66.3376 L843.412 72.576 L835.756 72.576 Q827.127 72.576 823.846 69.3758 Q820.565 66.1351 820.565 57.6282 L820.565 32.9987 L815.096 32.9987 L815.096 27.2059 L820.565 27.2059 L820.565 14.324 L828.059 14.324 Z" fill="#000000" fill-rule="evenodd" fill-opacity="1"></path><path clip-path="url(#clip030)" d="M872.092 76.7889 Q868.933 84.8907 865.935 87.3618 Q862.937 89.8329 857.914 89.8329 L851.959 89.8329 L851.959 83.5945 L856.334 83.5945 Q859.413 83.5945 861.114 82.1361 Q862.816 80.6778 864.882 75.2496 L866.219 71.8468 L847.868 27.2059 L855.767 27.2059 L869.945 62.6918 L884.124 27.2059 L892.023 27.2059 L872.092 76.7889 Z" fill="#000000" fill-rule="evenodd" fill-opacity="1"></path><path clip-path="url(#clip030)" d="M937.19 18.8205 L937.19 41.5461 L947.48 41.5461 Q953.191 41.5461 956.311 38.5889 Q959.43 35.6318 959.43 30.163 Q959.43 24.7348 956.311 21.7777 Q953.191 18.8205 947.48 18.8205 L937.19 18.8205 M929.008 12.096 L947.48 12.096 Q957.647 12.096 962.833 16.714 Q968.058 21.2916 968.058 30.163 Q968.058 39.1155 962.833 43.6931 Q957.647 48.2706 947.48 48.2706 L937.19 48.2706 L937.19 72.576 L929.008 72.576 L929.008 12.096 Z" fill="#000000" fill-rule="evenodd" fill-opacity="1"></path><path clip-path="url(#clip030)" d="M978.712 9.54393 L986.166 9.54393 L986.166 72.576 L978.712 72.576 L978.712 9.54393 Z" fill="#000000" fill-rule="evenodd" fill-opacity="1"></path><path clip-path="url(#clip030)" d="M1019.34 32.4315 Q1013.35 32.4315 1009.86 37.1306 Q1006.38 41.7891 1006.38 49.9314 Q1006.38 58.0738 1009.82 62.7728 Q1013.31 67.4314 1019.34 67.4314 Q1025.3 67.4314 1028.78 62.7323 Q1032.27 58.0333 1032.27 49.9314 Q1032.27 41.8701 1028.78 37.1711 Q1025.3 32.4315 1019.34 32.4315 M1019.34 26.1121 Q1029.06 26.1121 1034.61 32.4315 Q1040.16 38.7509 1040.16 49.9314 Q1040.16 61.0714 1034.61 67.4314 Q1029.06 73.7508 1019.34 73.7508 Q1009.58 73.7508 1004.03 67.4314 Q998.521 61.0714 998.521 49.9314 Q998.521 38.7509 1004.03 32.4315 Q1009.58 26.1121 1019.34 26.1121 Z" fill="#000000" fill-rule="evenodd" fill-opacity="1"></path><path clip-path="url(#clip030)" d="M1059.89 14.324 L1059.89 27.2059 L1075.25 27.2059 L1075.25 32.9987 L1059.89 32.9987 L1059.89 57.6282 Q1059.89 63.1779 1061.39 64.7578 Q1062.93 66.3376 1067.59 66.3376 L1075.25 66.3376 L1075.25 72.576 L1067.59 72.576 Q1058.96 72.576 1055.68 69.3758 Q1052.4 66.1351 1052.4 57.6282 L1052.4 32.9987 L1046.93 32.9987 L1046.93 27.2059 L1052.4 27.2059 L1052.4 14.324 L1059.89 14.324 Z" fill="#000000" fill-rule="evenodd" fill-opacity="1"></path><path clip-path="url(#clip030)" d="M1129 32.4315 Q1123.01 32.4315 1119.52 37.1306 Q1116.04 41.7891 1116.04 49.9314 Q1116.04 58.0738 1119.48 62.7728 Q1122.96 67.4314 1129 67.4314 Q1134.96 67.4314 1138.44 62.7323 Q1141.92 58.0333 1141.92 49.9314 Q1141.92 41.8701 1138.44 37.1711 Q1134.96 32.4315 1129 32.4315 M1129 26.1121 Q1138.72 26.1121 1144.27 32.4315 Q1149.82 38.7509 1149.82 49.9314 Q1149.82 61.0714 1144.27 67.4314 Q1138.72 73.7508 1129 73.7508 Q1119.24 73.7508 1113.69 67.4314 Q1108.18 61.0714 1108.18 49.9314 Q1108.18 38.7509 1113.69 32.4315 Q1119.24 26.1121 1129 26.1121 Z" fill="#000000" fill-rule="evenodd" fill-opacity="1"></path><path clip-path="url(#clip030)" d="M1185.15 9.54393 L1185.15 15.7418 L1178.02 15.7418 Q1174.01 15.7418 1172.43 17.3622 Q1170.89 18.9825 1170.89 23.1955 L1170.89 27.2059 L1183.16 27.2059 L1183.16 32.9987 L1170.89 32.9987 L1170.89 72.576 L1163.39 72.576 L1163.39 32.9987 L1156.26 32.9987 L1156.26 27.2059 L1163.39 27.2059 L1163.39 24.0462 Q1163.39 16.471 1166.92 13.0277 Q1170.44 9.54393 1178.1 9.54393 L1185.15 9.54393 Z" fill="#000000" fill-rule="evenodd" fill-opacity="1"></path><path clip-path="url(#clip030)" d="M1238.29 20.1573 L1227.19 50.2555 L1249.43 50.2555 L1238.29 20.1573 M1233.68 12.096 L1242.95 12.096 L1266 72.576 L1257.5 72.576 L1251.99 57.061 L1224.72 57.061 L1219.21 72.576 L1210.59 72.576 L1233.68 12.096 Z" fill="#000000" fill-rule="evenodd" fill-opacity="1"></path><path clip-path="url(#clip030)" d="M1273.9 12.096 L1282.12 12.096 L1282.12 48.8377 Q1282.12 58.5599 1285.65 62.8538 Q1289.17 67.1073 1297.07 67.1073 Q1304.93 67.1073 1308.46 62.8538 Q1311.98 58.5599 1311.98 48.8377 L1311.98 12.096 L1320.2 12.096 L1320.2 49.8504 Q1320.2 61.6791 1314.33 67.7149 Q1308.5 73.7508 1297.07 73.7508 Q1285.61 73.7508 1279.73 67.7149 Q1273.9 61.6791 1273.9 49.8504 L1273.9 12.096 Z" fill="#000000" fill-rule="evenodd" fill-opacity="1"></path><path clip-path="url(#clip030)" d="M1380.85 16.7545 L1380.85 25.383 Q1376.71 21.5346 1372.01 19.6307 Q1367.36 17.7268 1362.09 17.7268 Q1351.72 17.7268 1346.21 24.0867 Q1340.7 30.4061 1340.7 42.3968 Q1340.7 54.3469 1346.21 60.7069 Q1351.72 67.0263 1362.09 67.0263 Q1367.36 67.0263 1372.01 65.1223 Q1376.71 63.2184 1380.85 59.3701 L1380.85 67.9175 Q1376.55 70.8341 1371.73 72.2924 Q1366.95 73.7508 1361.6 73.7508 Q1347.87 73.7508 1339.97 65.3654 Q1332.07 56.9395 1332.07 42.3968 Q1332.07 27.8135 1339.97 19.4281 Q1347.87 11.0023 1361.6 11.0023 Q1367.03 11.0023 1371.81 12.4606 Q1376.63 13.8784 1380.85 16.7545 Z" fill="#000000" fill-rule="evenodd" fill-opacity="1"></path><path clip-path="url(#clip030)" d="M1442.5 9.54393 L1442.5 15.7418 L1435.37 15.7418 Q1431.36 15.7418 1429.78 17.3622 Q1428.24 18.9825 1428.24 23.1955 L1428.24 27.2059 L1440.52 27.2059 L1440.52 32.9987 L1428.24 32.9987 L1428.24 72.576 L1420.75 72.576 L1420.75 32.9987 L1413.62 32.9987 L1413.62 27.2059 L1420.75 27.2059 L1420.75 24.0462 Q1420.75 16.471 1424.27 13.0277 Q1427.8 9.54393 1435.45 9.54393 L1442.5 9.54393 Z" fill="#000000" fill-rule="evenodd" fill-opacity="1"></path><path clip-path="url(#clip030)" d="M1466.32 32.4315 Q1460.32 32.4315 1456.84 37.1306 Q1453.36 41.7891 1453.36 49.9314 Q1453.36 58.0738 1456.8 62.7728 Q1460.28 67.4314 1466.32 67.4314 Q1472.27 67.4314 1475.76 62.7323 Q1479.24 58.0333 1479.24 49.9314 Q1479.24 41.8701 1475.76 37.1711 Q1472.27 32.4315 1466.32 32.4315 M1466.32 26.1121 Q1476.04 26.1121 1481.59 32.4315 Q1487.14 38.7509 1487.14 49.9314 Q1487.14 61.0714 1481.59 67.4314 Q1476.04 73.7508 1466.32 73.7508 Q1456.56 73.7508 1451.01 67.4314 Q1445.5 61.0714 1445.5 49.9314 Q1445.5 38.7509 1451.01 32.4315 Q1456.56 26.1121 1466.32 26.1121 Z" fill="#000000" fill-rule="evenodd" fill-opacity="1"></path><path clip-path="url(#clip030)" d="M1525.79 34.1734 Q1524.53 33.4443 1523.03 33.1202 Q1521.57 32.7556 1519.79 32.7556 Q1513.47 32.7556 1510.07 36.8875 Q1506.71 40.9789 1506.71 48.6757 L1506.71 72.576 L1499.21 72.576 L1499.21 27.2059 L1506.71 27.2059 L1506.71 34.2544 Q1509.06 30.1225 1512.82 28.1376 Q1516.59 26.1121 1521.98 26.1121 Q1522.75 26.1121 1523.68 26.2337 Q1524.61 26.3147 1525.75 26.5172 L1525.79 34.1734 Z" fill="#000000" fill-rule="evenodd" fill-opacity="1"></path><path clip-path="url(#clip030)" d="M1560.3 12.096 L1568.48 12.096 L1568.48 36.8875 L1598.22 36.8875 L1598.22 12.096 L1606.4 12.096 L1606.4 72.576 L1598.22 72.576 L1598.22 43.7741 L1568.48 43.7741 L1568.48 72.576 L1560.3 72.576 L1560.3 12.096 Z" fill="#000000" fill-rule="evenodd" fill-opacity="1"></path><path clip-path="url(#clip030)" d="M1622.68 12.096 L1630.87 12.096 L1630.87 72.576 L1622.68 72.576 L1622.68 12.096 Z" fill="#000000" fill-rule="evenodd" fill-opacity="1"></path><path clip-path="url(#clip030)" d="M1662.75 72.576 L1639.66 12.096 L1648.21 12.096 L1667.37 63.0159 L1686.57 12.096 L1695.07 12.096 L1672.02 72.576 L1662.75 72.576 Z" fill="#000000" fill-rule="evenodd" fill-opacity="1"></path><path clip-path="url(#clip030)" d="M1766.53 14.0809 L1766.53 22.0612 Q1761.87 19.8332 1757.74 18.7395 Q1753.61 17.6457 1749.76 17.6457 Q1743.08 17.6457 1739.43 20.2383 Q1735.83 22.8309 1735.83 27.611 Q1735.83 31.6214 1738.22 33.6873 Q1740.65 35.7128 1747.37 36.9686 L1752.31 37.9813 Q1761.47 39.7232 1765.8 44.1387 Q1770.18 48.5136 1770.18 55.8863 Q1770.18 64.6767 1764.26 69.2137 Q1758.39 73.7508 1747.01 73.7508 Q1742.71 73.7508 1737.85 72.7785 Q1733.03 71.8063 1727.85 69.9024 L1727.85 61.4765 Q1732.83 64.2716 1737.61 65.6895 Q1742.39 67.1073 1747.01 67.1073 Q1754.01 67.1073 1757.82 64.3527 Q1761.63 61.598 1761.63 56.4939 Q1761.63 52.0379 1758.88 49.5264 Q1756.16 47.0148 1749.92 45.759 L1744.94 44.7868 Q1735.79 42.9639 1731.69 39.075 Q1727.6 35.1862 1727.6 28.2591 Q1727.6 20.2383 1733.23 15.6203 Q1738.9 11.0023 1748.83 11.0023 Q1753.08 11.0023 1757.5 11.7719 Q1761.91 12.5416 1766.53 14.0809 Z" fill="#000000" fill-rule="evenodd" fill-opacity="1"></path><path clip-path="url(#clip030)" d="M1789.99 14.324 L1789.99 27.2059 L1805.34 27.2059 L1805.34 32.9987 L1789.99 32.9987 L1789.99 57.6282 Q1789.99 63.1779 1791.49 64.7578 Q1793.02 66.3376 1797.68 66.3376 L1805.34 66.3376 L1805.34 72.576 L1797.68 72.576 Q1789.05 72.576 1785.77 69.3758 Q1782.49 66.1351 1782.49 57.6282 L1782.49 32.9987 L1777.02 32.9987 L1777.02 27.2059 L1782.49 27.2059 L1782.49 14.324 L1789.99 14.324 Z" fill="#000000" fill-rule="evenodd" fill-opacity="1"></path><path clip-path="url(#clip030)" d="M1835.76 49.7694 Q1826.73 49.7694 1823.24 51.8354 Q1819.76 53.9013 1819.76 58.8839 Q1819.76 62.8538 1822.35 65.2034 Q1824.99 67.5124 1829.48 67.5124 Q1835.68 67.5124 1839.41 63.1374 Q1843.18 58.7219 1843.18 51.4303 L1843.18 49.7694 L1835.76 49.7694 M1850.63 46.6907 L1850.63 72.576 L1843.18 72.576 L1843.18 65.6895 Q1840.62 69.8214 1836.82 71.8063 Q1833.01 73.7508 1827.5 73.7508 Q1820.53 73.7508 1816.4 69.8619 Q1812.31 65.9325 1812.31 59.3701 Q1812.31 51.7138 1817.41 47.825 Q1822.56 43.9361 1832.72 43.9361 L1843.18 43.9361 L1843.18 43.2069 Q1843.18 38.0623 1839.77 35.2672 Q1836.41 32.4315 1830.29 32.4315 Q1826.4 32.4315 1822.72 33.3632 Q1819.03 34.295 1815.63 36.1584 L1815.63 29.2718 Q1819.72 27.692 1823.57 26.9223 Q1827.42 26.1121 1831.06 26.1121 Q1840.91 26.1121 1845.77 31.2163 Q1850.63 36.3204 1850.63 46.6907 Z" fill="#000000" fill-rule="evenodd" fill-opacity="1"></path><path clip-path="url(#clip030)" d="M1873.35 14.324 L1873.35 27.2059 L1888.71 27.2059 L1888.71 32.9987 L1873.35 32.9987 L1873.35 57.6282 Q1873.35 63.1779 1874.85 64.7578 Q1876.39 66.3376 1881.05 66.3376 L1888.71 66.3376 L1888.71 72.576 L1881.05 72.576 Q1872.42 72.576 1869.14 69.3758 Q1865.86 66.1351 1865.86 57.6282 L1865.86 32.9987 L1860.39 32.9987 L1860.39 27.2059 L1865.86 27.2059 L1865.86 14.324 L1873.35 14.324 Z" fill="#000000" fill-rule="evenodd" fill-opacity="1"></path><path clip-path="url(#clip030)" d="M1897.74 54.671 L1897.74 27.2059 L1905.19 27.2059 L1905.19 54.3874 Q1905.19 60.8284 1907.71 64.0691 Q1910.22 67.2693 1915.24 67.2693 Q1921.28 67.2693 1924.76 63.421 Q1928.28 59.5726 1928.28 52.9291 L1928.28 27.2059 L1935.74 27.2059 L1935.74 72.576 L1928.28 72.576 L1928.28 65.6084 Q1925.57 69.7404 1921.97 71.7658 Q1918.4 73.7508 1913.66 73.7508 Q1905.84 73.7508 1901.79 68.8897 Q1897.74 64.0286 1897.74 54.671 M1916.5 26.1121 L1916.5 26.1121 Z" fill="#000000" fill-rule="evenodd" fill-opacity="1"></path><path clip-path="url(#clip030)" d="M1980.01 28.5427 L1980.01 35.5912 Q1976.85 33.9709 1973.45 33.1607 Q1970.05 32.3505 1966.4 32.3505 Q1960.85 32.3505 1958.06 34.0519 Q1955.3 35.7533 1955.3 39.156 Q1955.3 41.7486 1957.29 43.2475 Q1959.27 44.7058 1965.27 46.0426 L1967.82 46.6097 Q1975.76 48.3111 1979.08 51.4303 Q1982.45 54.509 1982.45 60.0587 Q1982.45 66.3781 1977.42 70.0644 Q1972.44 73.7508 1963.69 73.7508 Q1960.04 73.7508 1956.07 73.0216 Q1952.14 72.3329 1947.77 70.9151 L1947.77 63.2184 Q1951.9 65.3654 1955.91 66.4591 Q1959.92 67.5124 1963.85 67.5124 Q1969.12 67.5124 1971.95 65.73 Q1974.79 63.9071 1974.79 60.6258 Q1974.79 57.5877 1972.72 55.9673 Q1970.7 54.3469 1963.77 52.8481 L1961.18 52.2405 Q1954.25 50.7821 1951.17 47.7845 Q1948.09 44.7463 1948.09 39.4801 Q1948.09 33.0797 1952.63 29.5959 Q1957.17 26.1121 1965.51 26.1121 Q1969.64 26.1121 1973.29 26.7198 Q1976.94 27.3274 1980.01 28.5427 Z" fill="#000000" fill-rule="evenodd" fill-opacity="1"></path><polyline clip-path="url(#clip032)" style="stroke:#009af9; stroke-linecap:butt; stroke-linejoin:round; stroke-width:4; stroke-opacity:1; fill:none" points="
  655.481,1447.87 663.707,1447.85 671.932,1447.81 680.157,1447.76 688.382,1447.68 696.608,1447.57 704.833,1447.41 713.058,1447.18 721.283,1446.88 729.509,1446.47 
  737.734,1445.92 745.959,1445.19 754.184,1444.23 762.41,1442.99 770.635,1441.39 778.86,1439.37 787.085,1436.82 795.311,1433.65 803.536,1429.76 811.761,1425.01 
  819.987,1419.29 828.212,1412.46 836.437,1404.4 844.662,1394.98 852.888,1384.09 861.113,1371.61 869.338,1357.47 877.563,1341.61 885.789,1323.98 894.014,1304.58 
  902.239,1283.45 910.464,1260.65 918.69,1236.27 926.915,1210.46 935.14,1183.39 943.365,1155.23 951.591,1126.22 959.816,1096.57 968.041,1066.52 976.266,1036.3 
  984.492,1006.12 992.717,976.177 1000.94,946.634 1009.17,917.61 1017.39,889.177 1025.62,861.353 1033.84,834.1 1042.07,807.324 1050.29,780.877 1058.52,754.564 
  1066.74,728.153 1074.97,701.392 1083.19,674.022 1091.42,645.802 1099.65,616.526 1107.87,586.049 1116.1,554.303 1124.32,521.321 1132.55,487.244 1140.77,452.33 
  1149,416.958 1157.22,381.612 1165.45,346.875 1173.67,313.395 1181.9,281.863 1190.12,252.972 1198.35,227.382 1206.57,205.681 1214.8,188.347 1223.02,175.718 
  1231.25,167.968 1239.47,165.093 1247.7,166.903 1255.93,173.031 1264.15,182.952 1272.38,196.004 1280.6,211.428 1288.83,228.406 1297.05,246.105 1305.28,263.724 
  1313.5,280.53 1321.73,295.904 1329.95,309.36 1338.18,320.577 1346.4,329.403 1354.63,335.859 1362.85,340.132 1371.08,342.553 1379.3,343.574 1387.53,343.737 
  1395.75,343.638 1403.98,343.888 1412.21,345.082 1420.43,347.761 1428.66,352.384 1436.88,359.311 1445.11,368.78 1453.33,380.904 1461.56,395.673 1469.78,412.957 
  1478.01,432.522 1486.23,454.052 1494.46,477.165 1502.68,501.444 1510.91,526.458 1519.13,551.79 1527.36,577.054 1535.58,601.917 1543.81,626.111 1552.03,649.442 
  1560.26,671.796 1568.49,693.137 1576.71,713.504 1584.94,733.002 1593.16,751.788 1601.39,770.063 1609.61,788.052 1617.84,805.993 1626.06,824.119 1634.29,842.647 
  1642.51,861.765 1650.74,881.622 1658.96,902.322 1667.19,923.921 1675.41,946.424 1683.64,969.784 1691.86,993.91 1700.09,1018.67 1708.31,1043.9 1716.54,1069.39 
  1724.76,1094.95 1732.99,1120.33 1741.22,1145.32 1749.44,1169.68 1757.67,1193.19 1765.89,1215.66 1774.12,1236.88 1782.34,1256.7 1790.57,1274.97 1798.79,1291.57 
  1807.02,1306.42 1815.24,1319.45 1823.47,1330.64 1831.69,1339.98 1839.92,1347.51 1848.14,1353.29 1856.37,1357.43 1864.59,1360.04 1872.82,1361.29 1881.04,1361.34 
  1889.27,1360.41 1897.5,1358.72 1905.72,1356.47 1913.95,1353.92 1922.17,1351.28 1930.4,1348.78 1938.62,1346.61 1946.85,1344.95 1955.07,1343.96 1963.3,1343.73 
  1971.52,1344.34 1979.75,1345.85 1987.97,1348.24 1996.2,1351.48 2004.42,1355.5 2012.65,1360.22 2020.87,1365.51 2029.1,1371.26 2037.32,1377.31 2045.55,1383.54 
  2053.78,1389.81 2062,1396.01 2070.23,1402.01 2078.45,1407.73 2086.68,1413.09 2094.9,1418.05 2103.13,1422.56 2111.35,1426.61 2119.58,1430.2 2127.8,1433.34 
  2136.03,1436.04 2144.25,1438.34 2152.48,1440.28 2160.7,1441.88 2168.93,1443.2 2177.15,1444.27 2185.38,1445.13 2193.6,1445.81 2201.83,1446.34 2210.06,1446.75 
  2218.28,1447.07 2226.51,1447.3 2234.73,1447.48 2242.96,1447.61 2251.18,1447.71 2259.41,1447.78 2267.63,1447.82 2275.86,1447.85 2284.08,1447.87 2292.31,1447.87 
  
  "></polyline>
<polyline clip-path="url(#clip032)" style="stroke:#e26f46; stroke-linecap:butt; stroke-linejoin:round; stroke-width:4; stroke-opacity:1; fill:none" points="
  277.37,1447.87 286.452,1447.85 295.535,1447.83 304.617,1447.79 313.699,1447.72 322.781,1447.63 331.864,1447.51 340.946,1447.34 350.028,1447.1 359.11,1446.79 
  368.193,1446.37 377.275,1445.83 386.357,1445.12 395.439,1444.21 404.522,1443.06 413.604,1441.61 422.686,1439.82 431.768,1437.61 440.85,1434.93 449.933,1431.71 
  459.015,1427.88 468.097,1423.38 477.179,1418.14 486.262,1412.11 495.344,1405.26 504.426,1397.56 513.508,1389 522.591,1379.59 531.673,1369.37 540.755,1358.41 
  549.837,1346.79 558.92,1334.63 568.002,1322.07 577.084,1309.27 586.166,1296.41 595.249,1283.68 604.331,1271.29 613.413,1259.45 622.495,1248.37 631.578,1238.23 
  640.66,1229.22 649.742,1221.49 658.824,1215.19 667.907,1210.4 676.989,1207.2 686.071,1205.62 695.153,1205.63 704.235,1207.19 713.318,1210.2 722.4,1214.52 
  731.482,1220 740.564,1226.43 749.647,1233.6 758.729,1241.24 767.811,1249.13 776.893,1257 785.976,1264.61 795.058,1271.72 804.14,1278.13 813.222,1283.67 
  822.305,1288.19 831.387,1291.59 840.469,1293.83 849.551,1294.88 858.634,1294.77 867.716,1293.55 876.798,1291.32 885.88,1288.18 894.963,1284.23 904.045,1279.59 
  913.127,1274.34 922.209,1268.56 931.292,1262.3 940.374,1255.55 949.456,1248.29 958.538,1240.44 967.621,1231.91 976.703,1222.54 985.785,1212.18 994.867,1200.64 
  1003.95,1187.75 1013.03,1173.31 1022.11,1157.16 1031.2,1139.14 1040.28,1119.13 1049.36,1097.05 1058.44,1072.84 1067.53,1046.49 1076.61,1018.02 1085.69,987.478 
  1094.77,954.96 1103.85,920.583 1112.94,884.488 1122.02,846.843 1131.1,807.836 1140.18,767.675 1149.27,726.588 1158.35,684.824 1167.43,642.653 1176.51,600.365 
  1185.59,558.272 1194.68,516.706 1203.76,476.015 1212.84,436.555 1221.92,398.69 1231.01,362.775 1240.09,329.152 1249.17,298.133 1258.25,269.991 1267.33,244.951 
  1276.42,223.177 1285.5,204.77 1294.58,189.76 1303.66,178.11 1312.75,169.72 1321.83,164.433 1330.91,162.047 1339.99,162.327 1349.07,165.02 1358.16,169.87 
  1367.24,176.627 1376.32,185.065 1385.4,194.98 1394.49,206.203 1403.57,218.598 1412.65,232.059 1421.73,246.505 1430.81,261.876 1439.9,278.126 1448.98,295.213 
  1458.06,313.096 1467.14,331.732 1476.23,351.071 1485.31,371.06 1494.39,391.643 1503.47,412.767 1512.56,434.389 1521.64,456.474 1530.72,479.006 1539.8,501.986 
  1548.88,525.436 1557.97,549.395 1567.05,573.913 1576.13,599.05 1585.21,624.868 1594.3,651.419 1603.38,678.746 1612.46,706.867 1621.54,735.78 1630.62,765.451 
  1639.71,795.82 1648.79,826.798 1657.87,858.268 1666.95,890.095 1676.04,922.126 1685.12,954.195 1694.2,986.133 1703.28,1017.77 1712.36,1048.92 1721.45,1079.45 
  1730.53,1109.18 1739.61,1137.99 1748.69,1165.73 1757.78,1192.3 1766.86,1217.6 1775.94,1241.54 1785.02,1264.05 1794.1,1285.09 1803.19,1304.62 1812.27,1322.62 
  1821.35,1339.09 1830.43,1354.05 1839.52,1367.53 1848.6,1379.59 1857.68,1390.27 1866.76,1399.66 1875.84,1407.84 1884.93,1414.91 1894.01,1420.96 1903.09,1426.08 
  1912.17,1430.38 1921.26,1433.96 1930.34,1436.91 1939.42,1439.31 1948.5,1441.25 1957.58,1442.8 1966.67,1444.03 1975.75,1444.99 1984.83,1445.74 1993.91,1446.31 
  2003,1446.75 2012.08,1447.08 2021.16,1447.32 2030.24,1447.5 2039.33,1447.63 2048.41,1447.72 2057.49,1447.78 2066.57,1447.83 2075.65,1447.85 2084.74,1447.87 
  
  "></polyline>
<path clip-path="url(#clip030)" d="
M1765.27 324.425 L2281.56 324.425 L2281.56 168.905 L1765.27 168.905  Z
  " fill="#ffffff" fill-rule="evenodd" fill-opacity="1"></path>
<polyline clip-path="url(#clip030)" style="stroke:#000000; stroke-linecap:butt; stroke-linejoin:round; stroke-width:4; stroke-opacity:1; fill:none" points="
  1765.27,324.425 2281.56,324.425 2281.56,168.905 1765.27,168.905 1765.27,324.425 
  "></polyline>
<polyline clip-path="url(#clip030)" style="stroke:#009af9; stroke-linecap:butt; stroke-linejoin:round; stroke-width:4; stroke-opacity:1; fill:none" points="
  1789,220.745 1931.39,220.745 
  "></polyline>
<path clip-path="url(#clip030)" d="M1955.12 203.465 L1959.8 203.465 L1959.8 217.631 L1976.79 217.631 L1976.79 203.465 L1981.47 203.465 L1981.47 238.025 L1976.79 238.025 L1976.79 221.566 L1959.8 221.566 L1959.8 238.025 L1955.12 238.025 L1955.12 203.465 Z" fill="#000000" fill-rule="evenodd" fill-opacity="1"></path><path clip-path="url(#clip030)" d="M1990.77 203.465 L1995.45 203.465 L1995.45 238.025 L1990.77 238.025 L1990.77 203.465 Z" fill="#000000" fill-rule="evenodd" fill-opacity="1"></path><path clip-path="url(#clip030)" d="M2013.66 238.025 L2000.47 203.465 L2005.35 203.465 L2016.3 232.562 L2027.28 203.465 L2032.14 203.465 L2018.97 238.025 L2013.66 238.025 Z" fill="#000000" fill-rule="evenodd" fill-opacity="1"></path><path clip-path="url(#clip030)" d="M2052.25 203.465 L2058.55 203.465 L2073.87 232.377 L2073.87 203.465 L2078.41 203.465 L2078.41 238.025 L2072.11 238.025 L2056.79 209.113 L2056.79 238.025 L2052.25 238.025 L2052.25 203.465 Z" fill="#000000" fill-rule="evenodd" fill-opacity="1"></path><path clip-path="url(#clip030)" d="M2109.71 223.997 L2109.71 226.08 L2090.12 226.08 Q2090.4 230.478 2092.76 232.793 Q2095.15 235.085 2099.38 235.085 Q2101.84 235.085 2104.13 234.483 Q2106.44 233.881 2108.71 232.677 L2108.71 236.705 Q2106.42 237.677 2104.01 238.187 Q2101.6 238.696 2099.13 238.696 Q2092.92 238.696 2089.29 235.085 Q2085.68 231.474 2085.68 225.316 Q2085.68 218.951 2089.1 215.224 Q2092.55 211.474 2098.39 211.474 Q2103.62 211.474 2106.65 214.853 Q2109.71 218.21 2109.71 223.997 M2105.45 222.747 Q2105.4 219.252 2103.48 217.168 Q2101.58 215.085 2098.43 215.085 Q2094.87 215.085 2092.72 217.099 Q2090.59 219.113 2090.26 222.77 L2105.45 222.747 Z" fill="#000000" fill-rule="evenodd" fill-opacity="1"></path><path clip-path="url(#clip030)" d="M2133.76 224.761 Q2133.76 220.131 2131.84 217.585 Q2129.94 215.039 2126.49 215.039 Q2123.06 215.039 2121.14 217.585 Q2119.24 220.131 2119.24 224.761 Q2119.24 229.367 2121.14 231.914 Q2123.06 234.46 2126.49 234.46 Q2129.94 234.46 2131.84 231.914 Q2133.76 229.367 2133.76 224.761 M2138.02 234.807 Q2138.02 241.427 2135.08 244.645 Q2132.14 247.886 2126.07 247.886 Q2123.83 247.886 2121.84 247.538 Q2119.84 247.214 2117.97 246.52 L2117.97 242.376 Q2119.84 243.395 2121.67 243.881 Q2123.5 244.367 2125.4 244.367 Q2129.59 244.367 2131.67 242.168 Q2133.76 239.992 2133.76 235.571 L2133.76 233.464 Q2132.44 235.756 2130.38 236.89 Q2128.32 238.025 2125.45 238.025 Q2120.68 238.025 2117.76 234.39 Q2114.84 230.756 2114.84 224.761 Q2114.84 218.742 2117.76 215.108 Q2120.68 211.474 2125.45 211.474 Q2128.32 211.474 2130.38 212.608 Q2132.44 213.742 2133.76 216.034 L2133.76 212.099 L2138.02 212.099 L2138.02 234.807 Z" fill="#000000" fill-rule="evenodd" fill-opacity="1"></path><path clip-path="url(#clip030)" d="M2158.57 224.992 Q2153.41 224.992 2151.42 226.173 Q2149.43 227.353 2149.43 230.201 Q2149.43 232.469 2150.91 233.812 Q2152.41 235.131 2154.98 235.131 Q2158.52 235.131 2160.65 232.631 Q2162.81 230.108 2162.81 225.941 L2162.81 224.992 L2158.57 224.992 M2167.07 223.233 L2167.07 238.025 L2162.81 238.025 L2162.81 234.089 Q2161.35 236.451 2159.17 237.585 Q2157 238.696 2153.85 238.696 Q2149.87 238.696 2147.51 236.474 Q2145.17 234.228 2145.17 230.478 Q2145.17 226.103 2148.09 223.881 Q2151.02 221.659 2156.84 221.659 L2162.81 221.659 L2162.81 221.242 Q2162.81 218.303 2160.86 216.705 Q2158.94 215.085 2155.45 215.085 Q2153.22 215.085 2151.12 215.617 Q2149.01 216.15 2147.07 217.215 L2147.07 213.279 Q2149.4 212.377 2151.6 211.937 Q2153.8 211.474 2155.89 211.474 Q2161.51 211.474 2164.29 214.391 Q2167.07 217.307 2167.07 223.233 Z" fill="#000000" fill-rule="evenodd" fill-opacity="1"></path><path clip-path="url(#clip030)" d="M2180.05 204.738 L2180.05 212.099 L2188.83 212.099 L2188.83 215.409 L2180.05 215.409 L2180.05 229.483 Q2180.05 232.654 2180.91 233.557 Q2181.79 234.46 2184.45 234.46 L2188.83 234.46 L2188.83 238.025 L2184.45 238.025 Q2179.52 238.025 2177.65 236.196 Q2175.77 234.344 2175.77 229.483 L2175.77 215.409 L2172.65 215.409 L2172.65 212.099 L2175.77 212.099 L2175.77 204.738 L2180.05 204.738 Z" fill="#000000" fill-rule="evenodd" fill-opacity="1"></path><path clip-path="url(#clip030)" d="M2194.43 212.099 L2198.69 212.099 L2198.69 238.025 L2194.43 238.025 L2194.43 212.099 M2194.43 202.006 L2198.69 202.006 L2198.69 207.4 L2194.43 207.4 L2194.43 202.006 Z" fill="#000000" fill-rule="evenodd" fill-opacity="1"></path><path clip-path="url(#clip030)" d="M2204.54 212.099 L2209.06 212.099 L2217.16 233.858 L2225.26 212.099 L2229.77 212.099 L2220.05 238.025 L2214.27 238.025 L2204.54 212.099 Z" fill="#000000" fill-rule="evenodd" fill-opacity="1"></path><path clip-path="url(#clip030)" d="M2257.83 223.997 L2257.83 226.08 L2238.25 226.08 Q2238.52 230.478 2240.89 232.793 Q2243.27 235.085 2247.51 235.085 Q2249.96 235.085 2252.25 234.483 Q2254.57 233.881 2256.83 232.677 L2256.83 236.705 Q2254.54 237.677 2252.14 238.187 Q2249.73 238.696 2247.25 238.696 Q2241.05 238.696 2237.41 235.085 Q2233.8 231.474 2233.8 225.316 Q2233.8 218.951 2237.23 215.224 Q2240.68 211.474 2246.51 211.474 Q2251.74 211.474 2254.77 214.853 Q2257.83 218.21 2257.83 223.997 M2253.57 222.747 Q2253.52 219.252 2251.6 217.168 Q2249.7 215.085 2246.56 215.085 Q2242.99 215.085 2240.84 217.099 Q2238.71 219.113 2238.39 222.77 L2253.57 222.747 Z" fill="#000000" fill-rule="evenodd" fill-opacity="1"></path><polyline clip-path="url(#clip030)" style="stroke:#e26f46; stroke-linecap:butt; stroke-linejoin:round; stroke-width:4; stroke-opacity:1; fill:none" points="
  1789,272.585 1931.39,272.585 
  "></polyline>
<path clip-path="url(#clip030)" d="M1955.12 255.305 L1959.8 255.305 L1959.8 269.471 L1976.79 269.471 L1976.79 255.305 L1981.47 255.305 L1981.47 289.865 L1976.79 289.865 L1976.79 273.406 L1959.8 273.406 L1959.8 289.865 L1955.12 289.865 L1955.12 255.305 Z" fill="#000000" fill-rule="evenodd" fill-opacity="1"></path><path clip-path="url(#clip030)" d="M1990.77 255.305 L1995.45 255.305 L1995.45 289.865 L1990.77 289.865 L1990.77 255.305 Z" fill="#000000" fill-rule="evenodd" fill-opacity="1"></path><path clip-path="url(#clip030)" d="M2013.66 289.865 L2000.47 255.305 L2005.35 255.305 L2016.3 284.402 L2027.28 255.305 L2032.14 255.305 L2018.97 289.865 L2013.66 289.865 Z" fill="#000000" fill-rule="evenodd" fill-opacity="1"></path><path clip-path="url(#clip030)" d="M2056.93 259.147 L2056.93 272.133 L2062.81 272.133 Q2066.07 272.133 2067.85 270.443 Q2069.64 268.754 2069.64 265.629 Q2069.64 262.527 2067.85 260.837 Q2066.07 259.147 2062.81 259.147 L2056.93 259.147 M2052.25 255.305 L2062.81 255.305 Q2068.62 255.305 2071.58 257.944 Q2074.57 260.559 2074.57 265.629 Q2074.57 270.744 2071.58 273.36 Q2068.62 275.976 2062.81 275.976 L2056.93 275.976 L2056.93 289.865 L2052.25 289.865 L2052.25 255.305 Z" fill="#000000" fill-rule="evenodd" fill-opacity="1"></path><path clip-path="url(#clip030)" d="M2089.01 266.925 Q2085.59 266.925 2083.59 269.61 Q2081.6 272.272 2081.6 276.925 Q2081.6 281.578 2083.57 284.263 Q2085.56 286.925 2089.01 286.925 Q2092.41 286.925 2094.4 284.24 Q2096.4 281.555 2096.4 276.925 Q2096.4 272.318 2094.4 269.633 Q2092.41 266.925 2089.01 266.925 M2089.01 263.314 Q2094.57 263.314 2097.74 266.925 Q2100.91 270.536 2100.91 276.925 Q2100.91 283.291 2097.74 286.925 Q2094.57 290.536 2089.01 290.536 Q2083.43 290.536 2080.26 286.925 Q2077.11 283.291 2077.11 276.925 Q2077.11 270.536 2080.26 266.925 Q2083.43 263.314 2089.01 263.314 Z" fill="#000000" fill-rule="evenodd" fill-opacity="1"></path><path clip-path="url(#clip030)" d="M2124.5 264.703 L2124.5 268.731 Q2122.69 267.805 2120.75 267.342 Q2118.8 266.879 2116.72 266.879 Q2113.55 266.879 2111.95 267.851 Q2110.38 268.823 2110.38 270.768 Q2110.38 272.249 2111.51 273.105 Q2112.65 273.939 2116.07 274.703 L2117.53 275.027 Q2122.07 275.999 2123.96 277.781 Q2125.89 279.541 2125.89 282.712 Q2125.89 286.323 2123.02 288.429 Q2120.17 290.536 2115.17 290.536 Q2113.09 290.536 2110.82 290.119 Q2108.57 289.726 2106.07 288.916 L2106.07 284.517 Q2108.43 285.744 2110.72 286.369 Q2113.02 286.971 2115.26 286.971 Q2118.27 286.971 2119.89 285.953 Q2121.51 284.911 2121.51 283.036 Q2121.51 281.3 2120.33 280.374 Q2119.17 279.448 2115.21 278.592 L2113.73 278.244 Q2109.78 277.411 2108.02 275.698 Q2106.26 273.962 2106.26 270.953 Q2106.26 267.295 2108.85 265.305 Q2111.44 263.314 2116.21 263.314 Q2118.57 263.314 2120.65 263.661 Q2122.74 264.008 2124.5 264.703 Z" fill="#000000" fill-rule="evenodd" fill-opacity="1"></path><path clip-path="url(#clip030)" d="M2132.67 263.939 L2136.93 263.939 L2136.93 289.865 L2132.67 289.865 L2132.67 263.939 M2132.67 253.846 L2136.93 253.846 L2136.93 259.24 L2132.67 259.24 L2132.67 253.846 Z" fill="#000000" fill-rule="evenodd" fill-opacity="1"></path><path clip-path="url(#clip030)" d="M2150.05 256.578 L2150.05 263.939 L2158.83 263.939 L2158.83 267.249 L2150.05 267.249 L2150.05 281.323 Q2150.05 284.494 2150.91 285.397 Q2151.79 286.3 2154.45 286.3 L2158.83 286.3 L2158.83 289.865 L2154.45 289.865 Q2149.52 289.865 2147.65 288.036 Q2145.77 286.184 2145.77 281.323 L2145.77 267.249 L2142.65 267.249 L2142.65 263.939 L2145.77 263.939 L2145.77 256.578 L2150.05 256.578 Z" fill="#000000" fill-rule="evenodd" fill-opacity="1"></path><path clip-path="url(#clip030)" d="M2164.43 263.939 L2168.69 263.939 L2168.69 289.865 L2164.43 289.865 L2164.43 263.939 M2164.43 253.846 L2168.69 253.846 L2168.69 259.24 L2164.43 259.24 L2164.43 253.846 Z" fill="#000000" fill-rule="evenodd" fill-opacity="1"></path><path clip-path="url(#clip030)" d="M2174.54 263.939 L2179.06 263.939 L2187.16 285.698 L2195.26 263.939 L2199.77 263.939 L2190.05 289.865 L2184.27 289.865 L2174.54 263.939 Z" fill="#000000" fill-rule="evenodd" fill-opacity="1"></path><path clip-path="url(#clip030)" d="M2227.83 275.837 L2227.83 277.92 L2208.25 277.92 Q2208.52 282.318 2210.89 284.633 Q2213.27 286.925 2217.51 286.925 Q2219.96 286.925 2222.25 286.323 Q2224.57 285.721 2226.83 284.517 L2226.83 288.545 Q2224.54 289.517 2222.14 290.027 Q2219.73 290.536 2217.25 290.536 Q2211.05 290.536 2207.41 286.925 Q2203.8 283.314 2203.8 277.156 Q2203.8 270.791 2207.23 267.064 Q2210.68 263.314 2216.51 263.314 Q2221.74 263.314 2224.77 266.693 Q2227.83 270.05 2227.83 275.837 M2223.57 274.587 Q2223.52 271.092 2221.6 269.008 Q2219.71 266.925 2216.56 266.925 Q2212.99 266.925 2210.84 268.939 Q2208.71 270.953 2208.39 274.61 L2223.57 274.587 Z" fill="#000000" fill-rule="evenodd" fill-opacity="1"></path></svg>