<svg xmlns="http://www.w3.org/2000/svg" xmlns:xlink="http://www.w3.org/1999/xlink" width="600" height="400" viewBox="0 0 2400 1600">
<defs>
  <clipPath id="clip070">
    <rect x="0" y="0" width="2400" height="1600"></rect>
  </clipPath>
</defs>
<path clip-path="url(#clip070)" d="
M0 1600 L2400 1600 L2400 0 L0 0  Z
  " fill="#ffffff" fill-rule="evenodd" fill-opacity="1"></path>
<defs>
  <clipPath id="clip071">
    <rect x="480" y="0" width="1681" height="1600"></rect>
  </clipPath>
</defs>
<path clip-path="url(#clip070)" d="
M235.283 1423.18 L2352.76 1423.18 L2352.76 123.472 L235.283 123.472  Z
  " fill="#ffffff" fill-rule="evenodd" fill-opacity="1"></path>
<defs>
  <clipPath id="clip072">
    <rect x="235" y="123" width="2118" height="1301"></rect>
  </clipPath>
</defs>
<polyline clip-path="url(#clip072)" style="stroke:#000000; stroke-linecap:butt; stroke-linejoin:round; stroke-width:2; stroke-opacity:0.1; fill:none" points="
  739.126,1423.18 739.126,123.472 
  "></polyline>
<polyline clip-path="url(#clip072)" style="stroke:#000000; stroke-linecap:butt; stroke-linejoin:round; stroke-width:2; stroke-opacity:0.1; fill:none" points="
  1848.91,1423.18 1848.91,123.472 
  "></polyline>
<polyline clip-path="url(#clip070)" style="stroke:#000000; stroke-linecap:butt; stroke-linejoin:round; stroke-width:4; stroke-opacity:1; fill:none" points="
  235.283,1423.18 2352.76,1423.18 
  "></polyline>
<polyline clip-path="url(#clip070)" style="stroke:#000000; stroke-linecap:butt; stroke-linejoin:round; stroke-width:4; stroke-opacity:1; fill:none" points="
  739.126,1423.18 739.126,1404.28 
  "></polyline>
<polyline clip-path="url(#clip070)" style="stroke:#000000; stroke-linecap:butt; stroke-linejoin:round; stroke-width:4; stroke-opacity:1; fill:none" points="
  1848.91,1423.18 1848.91,1404.28 
  "></polyline>
<path clip-path="url(#clip070)" d="M587.773 1451.02 L592.449 1451.02 L592.449 1465.19 L609.439 1465.19 L609.439 1451.02 L614.115 1451.02 L614.115 1485.58 L609.439 1485.58 L609.439 1469.12 L592.449 1469.12 L592.449 1485.58 L587.773 1485.58 L587.773 1451.02 Z" fill="#000000" fill-rule="evenodd" fill-opacity="1"></path><path clip-path="url(#clip070)" d="M623.421 1451.02 L628.097 1451.02 L628.097 1485.58 L623.421 1485.58 L623.421 1451.02 Z" fill="#000000" fill-rule="evenodd" fill-opacity="1"></path><path clip-path="url(#clip070)" d="M646.314 1485.58 L633.12 1451.02 L638.004 1451.02 L648.953 1480.12 L659.925 1451.02 L664.786 1451.02 L651.615 1485.58 L646.314 1485.58 Z" fill="#000000" fill-rule="evenodd" fill-opacity="1"></path><path clip-path="url(#clip070)" d="M684.902 1451.02 L691.198 1451.02 L706.522 1479.93 L706.522 1451.02 L711.059 1451.02 L711.059 1485.58 L704.763 1485.58 L689.439 1456.67 L689.439 1485.58 L684.902 1485.58 L684.902 1451.02 Z" fill="#000000" fill-rule="evenodd" fill-opacity="1"></path><path clip-path="url(#clip070)" d="M742.355 1471.55 L742.355 1473.64 L722.772 1473.64 Q723.05 1478.03 725.411 1480.35 Q727.795 1482.64 732.031 1482.64 Q734.485 1482.64 736.776 1482.04 Q739.091 1481.44 741.36 1480.23 L741.36 1484.26 Q739.068 1485.23 736.661 1485.74 Q734.253 1486.25 731.777 1486.25 Q725.573 1486.25 721.939 1482.64 Q718.328 1479.03 718.328 1472.87 Q718.328 1466.51 721.753 1462.78 Q725.202 1459.03 731.036 1459.03 Q736.267 1459.03 739.3 1462.41 Q742.355 1465.77 742.355 1471.55 M738.096 1470.3 Q738.05 1466.81 736.128 1464.72 Q734.23 1462.64 731.082 1462.64 Q727.517 1462.64 725.365 1464.65 Q723.235 1466.67 722.911 1470.33 L738.096 1470.3 Z" fill="#000000" fill-rule="evenodd" fill-opacity="1"></path><path clip-path="url(#clip070)" d="M766.406 1472.32 Q766.406 1467.69 764.485 1465.14 Q762.587 1462.59 759.137 1462.59 Q755.712 1462.59 753.79 1465.14 Q751.892 1467.69 751.892 1472.32 Q751.892 1476.92 753.79 1479.47 Q755.712 1482.02 759.137 1482.02 Q762.587 1482.02 764.485 1479.47 Q766.406 1476.92 766.406 1472.32 M770.665 1482.36 Q770.665 1488.98 767.725 1492.2 Q764.786 1495.44 758.721 1495.44 Q756.475 1495.44 754.485 1495.09 Q752.494 1494.77 750.619 1494.08 L750.619 1489.93 Q752.494 1490.95 754.323 1491.44 Q756.151 1491.92 758.05 1491.92 Q762.239 1491.92 764.323 1489.72 Q766.406 1487.55 766.406 1483.13 L766.406 1481.02 Q765.087 1483.31 763.026 1484.45 Q760.966 1485.58 758.096 1485.58 Q753.327 1485.58 750.411 1481.95 Q747.494 1478.31 747.494 1472.32 Q747.494 1466.3 750.411 1462.66 Q753.327 1459.03 758.096 1459.03 Q760.966 1459.03 763.026 1460.16 Q765.087 1461.3 766.406 1463.59 L766.406 1459.65 L770.665 1459.65 L770.665 1482.36 Z" fill="#000000" fill-rule="evenodd" fill-opacity="1"></path><path clip-path="url(#clip070)" d="M791.221 1472.55 Q786.059 1472.55 784.068 1473.73 Q782.077 1474.91 782.077 1477.76 Q782.077 1480.02 783.559 1481.37 Q785.063 1482.69 787.633 1482.69 Q791.174 1482.69 793.304 1480.19 Q795.457 1477.66 795.457 1473.5 L795.457 1472.55 L791.221 1472.55 M799.716 1470.79 L799.716 1485.58 L795.457 1485.58 L795.457 1481.64 Q793.998 1484.01 791.822 1485.14 Q789.647 1486.25 786.498 1486.25 Q782.517 1486.25 780.156 1484.03 Q777.818 1481.78 777.818 1478.03 Q777.818 1473.66 780.735 1471.44 Q783.674 1469.21 789.485 1469.21 L795.457 1469.21 L795.457 1468.8 Q795.457 1465.86 793.512 1464.26 Q791.591 1462.64 788.096 1462.64 Q785.873 1462.64 783.767 1463.17 Q781.661 1463.7 779.716 1464.77 L779.716 1460.83 Q782.054 1459.93 784.253 1459.49 Q786.452 1459.03 788.535 1459.03 Q794.16 1459.03 796.938 1461.95 Q799.716 1464.86 799.716 1470.79 Z" fill="#000000" fill-rule="evenodd" fill-opacity="1"></path><path clip-path="url(#clip070)" d="M812.702 1452.29 L812.702 1459.65 L821.475 1459.65 L821.475 1462.96 L812.702 1462.96 L812.702 1477.04 Q812.702 1480.21 813.558 1481.11 Q814.438 1482.02 817.1 1482.02 L821.475 1482.02 L821.475 1485.58 L817.1 1485.58 Q812.17 1485.58 810.295 1483.75 Q808.42 1481.9 808.42 1477.04 L808.42 1462.96 L805.295 1462.96 L805.295 1459.65 L808.42 1459.65 L808.42 1452.29 L812.702 1452.29 Z" fill="#000000" fill-rule="evenodd" fill-opacity="1"></path><path clip-path="url(#clip070)" d="M827.077 1459.65 L831.336 1459.65 L831.336 1485.58 L827.077 1485.58 L827.077 1459.65 M827.077 1449.56 L831.336 1449.56 L831.336 1454.96 L827.077 1454.96 L827.077 1449.56 Z" fill="#000000" fill-rule="evenodd" fill-opacity="1"></path><path clip-path="url(#clip070)" d="M837.193 1459.65 L841.706 1459.65 L849.808 1481.41 L857.91 1459.65 L862.424 1459.65 L852.702 1485.58 L846.915 1485.58 L837.193 1459.65 Z" fill="#000000" fill-rule="evenodd" fill-opacity="1"></path><path clip-path="url(#clip070)" d="M890.479 1471.55 L890.479 1473.64 L870.896 1473.64 Q871.174 1478.03 873.535 1480.35 Q875.919 1482.64 880.155 1482.64 Q882.609 1482.64 884.901 1482.04 Q887.216 1481.44 889.484 1480.23 L889.484 1484.26 Q887.192 1485.23 884.785 1485.74 Q882.378 1486.25 879.901 1486.25 Q873.697 1486.25 870.063 1482.64 Q866.452 1479.03 866.452 1472.87 Q866.452 1466.51 869.878 1462.78 Q873.327 1459.03 879.16 1459.03 Q884.391 1459.03 887.424 1462.41 Q890.479 1465.77 890.479 1471.55 M886.22 1470.3 Q886.174 1466.81 884.253 1464.72 Q882.354 1462.64 879.206 1462.64 Q875.641 1462.64 873.489 1464.65 Q871.359 1466.67 871.035 1470.33 L886.22 1470.3 Z" fill="#000000" fill-rule="evenodd" fill-opacity="1"></path><path clip-path="url(#clip070)" d="M1712.56 1451.02 L1717.24 1451.02 L1717.24 1465.19 L1734.23 1465.19 L1734.23 1451.02 L1738.9 1451.02 L1738.9 1485.58 L1734.23 1485.58 L1734.23 1469.12 L1717.24 1469.12 L1717.24 1485.58 L1712.56 1485.58 L1712.56 1451.02 Z" fill="#000000" fill-rule="evenodd" fill-opacity="1"></path><path clip-path="url(#clip070)" d="M1748.21 1451.02 L1752.88 1451.02 L1752.88 1485.58 L1748.21 1485.58 L1748.21 1451.02 Z" fill="#000000" fill-rule="evenodd" fill-opacity="1"></path><path clip-path="url(#clip070)" d="M1771.1 1485.58 L1757.91 1451.02 L1762.79 1451.02 L1773.74 1480.12 L1784.71 1451.02 L1789.57 1451.02 L1776.4 1485.58 L1771.1 1485.58 Z" fill="#000000" fill-rule="evenodd" fill-opacity="1"></path><path clip-path="url(#clip070)" d="M1814.36 1454.86 L1814.36 1467.85 L1820.24 1467.85 Q1823.51 1467.85 1825.29 1466.16 Q1827.07 1464.47 1827.07 1461.34 Q1827.07 1458.24 1825.29 1456.55 Q1823.51 1454.86 1820.24 1454.86 L1814.36 1454.86 M1809.69 1451.02 L1820.24 1451.02 Q1826.05 1451.02 1829.02 1453.66 Q1832 1456.27 1832 1461.34 Q1832 1466.46 1829.02 1469.08 Q1826.05 1471.69 1820.24 1471.69 L1814.36 1471.69 L1814.36 1485.58 L1809.69 1485.58 L1809.69 1451.02 Z" fill="#000000" fill-rule="evenodd" fill-opacity="1"></path><path clip-path="url(#clip070)" d="M1846.45 1462.64 Q1843.02 1462.64 1841.03 1465.33 Q1839.04 1467.99 1839.04 1472.64 Q1839.04 1477.29 1841.01 1479.98 Q1843 1482.64 1846.45 1482.64 Q1849.85 1482.64 1851.84 1479.95 Q1853.83 1477.27 1853.83 1472.64 Q1853.83 1468.03 1851.84 1465.35 Q1849.85 1462.64 1846.45 1462.64 M1846.45 1459.03 Q1852 1459.03 1855.17 1462.64 Q1858.35 1466.25 1858.35 1472.64 Q1858.35 1479.01 1855.17 1482.64 Q1852 1486.25 1846.45 1486.25 Q1840.87 1486.25 1837.7 1482.64 Q1834.55 1479.01 1834.55 1472.64 Q1834.55 1466.25 1837.7 1462.64 Q1840.87 1459.03 1846.45 1459.03 Z" fill="#000000" fill-rule="evenodd" fill-opacity="1"></path><path clip-path="url(#clip070)" d="M1881.93 1460.42 L1881.93 1464.45 Q1880.13 1463.52 1878.18 1463.06 Q1876.24 1462.59 1874.16 1462.59 Q1870.98 1462.59 1869.39 1463.57 Q1867.81 1464.54 1867.81 1466.48 Q1867.81 1467.96 1868.95 1468.82 Q1870.08 1469.65 1873.51 1470.42 L1874.97 1470.74 Q1879.5 1471.71 1881.4 1473.5 Q1883.32 1475.26 1883.32 1478.43 Q1883.32 1482.04 1880.45 1484.14 Q1877.6 1486.25 1872.6 1486.25 Q1870.52 1486.25 1868.25 1485.83 Q1866.01 1485.44 1863.51 1484.63 L1863.51 1480.23 Q1865.87 1481.46 1868.16 1482.08 Q1870.45 1482.69 1872.7 1482.69 Q1875.71 1482.69 1877.33 1481.67 Q1878.95 1480.63 1878.95 1478.75 Q1878.95 1477.02 1877.77 1476.09 Q1876.61 1475.16 1872.65 1474.31 L1871.17 1473.96 Q1867.21 1473.13 1865.45 1471.41 Q1863.69 1469.68 1863.69 1466.67 Q1863.69 1463.01 1866.29 1461.02 Q1868.88 1459.03 1873.65 1459.03 Q1876.01 1459.03 1878.09 1459.38 Q1880.17 1459.72 1881.93 1460.42 Z" fill="#000000" fill-rule="evenodd" fill-opacity="1"></path><path clip-path="url(#clip070)" d="M1890.1 1459.65 L1894.36 1459.65 L1894.36 1485.58 L1890.1 1485.58 L1890.1 1459.65 M1890.1 1449.56 L1894.36 1449.56 L1894.36 1454.96 L1890.1 1454.96 L1890.1 1449.56 Z" fill="#000000" fill-rule="evenodd" fill-opacity="1"></path><path clip-path="url(#clip070)" d="M1907.49 1452.29 L1907.49 1459.65 L1916.26 1459.65 L1916.26 1462.96 L1907.49 1462.96 L1907.49 1477.04 Q1907.49 1480.21 1908.35 1481.11 Q1909.22 1482.02 1911.89 1482.02 L1916.26 1482.02 L1916.26 1485.58 L1911.89 1485.58 Q1906.96 1485.58 1905.08 1483.75 Q1903.21 1481.9 1903.21 1477.04 L1903.21 1462.96 L1900.08 1462.96 L1900.08 1459.65 L1903.21 1459.65 L1903.21 1452.29 L1907.49 1452.29 Z" fill="#000000" fill-rule="evenodd" fill-opacity="1"></path><path clip-path="url(#clip070)" d="M1921.86 1459.65 L1926.12 1459.65 L1926.12 1485.58 L1921.86 1485.58 L1921.86 1459.65 M1921.86 1449.56 L1926.12 1449.56 L1926.12 1454.96 L1921.86 1454.96 L1921.86 1449.56 Z" fill="#000000" fill-rule="evenodd" fill-opacity="1"></path><path clip-path="url(#clip070)" d="M1931.98 1459.65 L1936.49 1459.65 L1944.6 1481.41 L1952.7 1459.65 L1957.21 1459.65 L1947.49 1485.58 L1941.7 1485.58 L1931.98 1459.65 Z" fill="#000000" fill-rule="evenodd" fill-opacity="1"></path><path clip-path="url(#clip070)" d="M1985.27 1471.55 L1985.27 1473.64 L1965.68 1473.64 Q1965.96 1478.03 1968.32 1480.35 Q1970.71 1482.64 1974.94 1482.64 Q1977.4 1482.64 1979.69 1482.04 Q1982 1481.44 1984.27 1480.23 L1984.27 1484.26 Q1981.98 1485.23 1979.57 1485.74 Q1977.16 1486.25 1974.69 1486.25 Q1968.48 1486.25 1964.85 1482.64 Q1961.24 1479.03 1961.24 1472.87 Q1961.24 1466.51 1964.66 1462.78 Q1968.11 1459.03 1973.95 1459.03 Q1979.18 1459.03 1982.21 1462.41 Q1985.27 1465.77 1985.27 1471.55 M1981.01 1470.3 Q1980.96 1466.81 1979.04 1464.72 Q1977.14 1462.64 1973.99 1462.64 Q1970.43 1462.64 1968.28 1464.65 Q1966.15 1466.67 1965.82 1470.33 L1981.01 1470.3 Z" fill="#000000" fill-rule="evenodd" fill-opacity="1"></path><path clip-path="url(#clip070)" d="M1128.18 1520.52 L1134.61 1520.52 L1134.61 1540 L1157.97 1540 L1157.97 1520.52 L1164.4 1520.52 L1164.4 1568.04 L1157.97 1568.04 L1157.97 1545.41 L1134.61 1545.41 L1134.61 1568.04 L1128.18 1568.04 L1128.18 1520.52 Z" fill="#000000" fill-rule="evenodd" fill-opacity="1"></path><path clip-path="url(#clip070)" d="M1177.19 1520.52 L1183.62 1520.52 L1183.62 1568.04 L1177.19 1568.04 L1177.19 1520.52 Z" fill="#000000" fill-rule="evenodd" fill-opacity="1"></path><path clip-path="url(#clip070)" d="M1208.67 1568.04 L1190.53 1520.52 L1197.24 1520.52 L1212.3 1560.53 L1227.39 1520.52 L1234.07 1520.52 L1215.96 1568.04 L1208.67 1568.04 Z" fill="#000000" fill-rule="evenodd" fill-opacity="1"></path><path clip-path="url(#clip070)" d="M1290.22 1522.08 L1290.22 1528.35 Q1286.56 1526.6 1283.31 1525.74 Q1280.06 1524.88 1277.04 1524.88 Q1271.79 1524.88 1268.92 1526.92 Q1266.09 1528.96 1266.09 1532.71 Q1266.09 1535.87 1267.97 1537.49 Q1269.88 1539.08 1275.16 1540.07 L1279.04 1540.86 Q1286.24 1542.23 1289.64 1545.7 Q1293.08 1549.14 1293.08 1554.93 Q1293.08 1561.84 1288.43 1565.4 Q1283.82 1568.97 1274.87 1568.97 Q1271.5 1568.97 1267.68 1568.2 Q1263.89 1567.44 1259.82 1565.94 L1259.82 1559.32 Q1263.73 1561.52 1267.49 1562.63 Q1271.25 1563.75 1274.87 1563.75 Q1280.38 1563.75 1283.37 1561.58 Q1286.36 1559.42 1286.36 1555.41 Q1286.36 1551.91 1284.2 1549.93 Q1282.07 1547.96 1277.17 1546.97 L1273.25 1546.21 Q1266.06 1544.78 1262.84 1541.72 Q1259.63 1538.67 1259.63 1533.22 Q1259.63 1526.92 1264.05 1523.29 Q1268.51 1519.66 1276.31 1519.66 Q1279.65 1519.66 1283.12 1520.27 Q1286.59 1520.87 1290.22 1522.08 Z" fill="#000000" fill-rule="evenodd" fill-opacity="1"></path><path clip-path="url(#clip070)" d="M1308.64 1522.27 L1308.64 1532.4 L1320.71 1532.4 L1320.71 1536.95 L1308.64 1536.95 L1308.64 1556.3 Q1308.64 1560.66 1309.82 1561.9 Q1311.03 1563.14 1314.69 1563.14 L1320.71 1563.14 L1320.71 1568.04 L1314.69 1568.04 Q1307.91 1568.04 1305.33 1565.53 Q1302.76 1562.98 1302.76 1556.3 L1302.76 1536.95 L1298.46 1536.95 L1298.46 1532.4 L1302.76 1532.4 L1302.76 1522.27 L1308.64 1522.27 Z" fill="#000000" fill-rule="evenodd" fill-opacity="1"></path><path clip-path="url(#clip070)" d="M1344.61 1550.12 Q1337.51 1550.12 1334.78 1551.75 Q1332.04 1553.37 1332.04 1557.29 Q1332.04 1560.4 1334.08 1562.25 Q1336.14 1564.07 1339.68 1564.07 Q1344.55 1564.07 1347.48 1560.63 Q1350.44 1557.16 1350.44 1551.43 L1350.44 1550.12 L1344.61 1550.12 M1356.29 1547.71 L1356.29 1568.04 L1350.44 1568.04 L1350.44 1562.63 Q1348.43 1565.88 1345.44 1567.44 Q1342.45 1568.97 1338.12 1568.97 Q1332.64 1568.97 1329.4 1565.91 Q1326.18 1562.82 1326.18 1557.67 Q1326.18 1551.65 1330.19 1548.6 Q1334.23 1545.54 1342.22 1545.54 L1350.44 1545.54 L1350.44 1544.97 Q1350.44 1540.93 1347.76 1538.73 Q1345.12 1536.5 1340.31 1536.5 Q1337.26 1536.5 1334.36 1537.23 Q1331.47 1537.97 1328.79 1539.43 L1328.79 1534.02 Q1332.01 1532.78 1335.03 1532.17 Q1338.05 1531.54 1340.92 1531.54 Q1348.65 1531.54 1352.47 1535.55 Q1356.29 1539.56 1356.29 1547.71 Z" fill="#000000" fill-rule="evenodd" fill-opacity="1"></path><path clip-path="url(#clip070)" d="M1374.15 1522.27 L1374.15 1532.4 L1386.21 1532.4 L1386.21 1536.95 L1374.15 1536.95 L1374.15 1556.3 Q1374.15 1560.66 1375.33 1561.9 Q1376.53 1563.14 1380.2 1563.14 L1386.21 1563.14 L1386.21 1568.04 L1380.2 1568.04 Q1373.42 1568.04 1370.84 1565.53 Q1368.26 1562.98 1368.26 1556.3 L1368.26 1536.95 L1363.96 1536.95 L1363.96 1532.4 L1368.26 1532.4 L1368.26 1522.27 L1374.15 1522.27 Z" fill="#000000" fill-rule="evenodd" fill-opacity="1"></path><path clip-path="url(#clip070)" d="M1393.31 1553.98 L1393.31 1532.4 L1399.16 1532.4 L1399.16 1553.75 Q1399.16 1558.81 1401.14 1561.36 Q1403.11 1563.87 1407.06 1563.87 Q1411.8 1563.87 1414.54 1560.85 Q1417.31 1557.83 1417.31 1552.61 L1417.31 1532.4 L1423.16 1532.4 L1423.16 1568.04 L1417.31 1568.04 L1417.31 1562.57 Q1415.17 1565.82 1412.34 1567.41 Q1409.54 1568.97 1405.82 1568.97 Q1399.67 1568.97 1396.49 1565.15 Q1393.31 1561.33 1393.31 1553.98 M1408.05 1531.54 L1408.05 1531.54 Z" fill="#000000" fill-rule="evenodd" fill-opacity="1"></path><path clip-path="url(#clip070)" d="M1457.95 1533.45 L1457.95 1538.98 Q1455.47 1537.71 1452.8 1537.07 Q1450.12 1536.44 1447.26 1536.44 Q1442.9 1536.44 1440.7 1537.77 Q1438.54 1539.11 1438.54 1541.79 Q1438.54 1543.82 1440.1 1545 Q1441.66 1546.15 1446.37 1547.2 L1448.37 1547.64 Q1454.61 1548.98 1457.22 1551.43 Q1459.86 1553.85 1459.86 1558.21 Q1459.86 1563.17 1455.92 1566.07 Q1452 1568.97 1445.13 1568.97 Q1442.26 1568.97 1439.14 1568.39 Q1436.05 1567.85 1432.62 1566.74 L1432.62 1560.69 Q1435.86 1562.38 1439.01 1563.24 Q1442.17 1564.07 1445.25 1564.07 Q1449.39 1564.07 1451.62 1562.66 Q1453.85 1561.23 1453.85 1558.65 Q1453.85 1556.27 1452.22 1554.99 Q1450.63 1553.72 1445.19 1552.54 L1443.15 1552.07 Q1437.71 1550.92 1435.29 1548.56 Q1432.87 1546.18 1432.87 1542.04 Q1432.87 1537.01 1436.44 1534.27 Q1440 1531.54 1446.56 1531.54 Q1449.8 1531.54 1452.67 1532.01 Q1455.53 1532.49 1457.95 1533.45 Z" fill="#000000" fill-rule="evenodd" fill-opacity="1"></path><polyline clip-path="url(#clip072)" style="stroke:#000000; stroke-linecap:butt; stroke-linejoin:round; stroke-width:2; stroke-opacity:0.1; fill:none" points="
  235.283,1263.39 2352.76,1263.39 
  "></polyline>
<polyline clip-path="url(#clip072)" style="stroke:#000000; stroke-linecap:butt; stroke-linejoin:round; stroke-width:2; stroke-opacity:0.1; fill:none" points="
  235.283,1026.96 2352.76,1026.96 
  "></polyline>
<polyline clip-path="url(#clip072)" style="stroke:#000000; stroke-linecap:butt; stroke-linejoin:round; stroke-width:2; stroke-opacity:0.1; fill:none" points="
  235.283,790.54 2352.76,790.54 
  "></polyline>
<polyline clip-path="url(#clip072)" style="stroke:#000000; stroke-linecap:butt; stroke-linejoin:round; stroke-width:2; stroke-opacity:0.1; fill:none" points="
  235.283,554.116 2352.76,554.116 
  "></polyline>
<polyline clip-path="url(#clip072)" style="stroke:#000000; stroke-linecap:butt; stroke-linejoin:round; stroke-width:2; stroke-opacity:0.1; fill:none" points="
  235.283,317.691 2352.76,317.691 
  "></polyline>
<polyline clip-path="url(#clip070)" style="stroke:#000000; stroke-linecap:butt; stroke-linejoin:round; stroke-width:4; stroke-opacity:1; fill:none" points="
  235.283,1423.18 235.283,123.472 
  "></polyline>
<polyline clip-path="url(#clip070)" style="stroke:#000000; stroke-linecap:butt; stroke-linejoin:round; stroke-width:4; stroke-opacity:1; fill:none" points="
  235.283,1263.39 254.18,1263.39 
  "></polyline>
<polyline clip-path="url(#clip070)" style="stroke:#000000; stroke-linecap:butt; stroke-linejoin:round; stroke-width:4; stroke-opacity:1; fill:none" points="
  235.283,1026.96 254.18,1026.96 
  "></polyline>
<polyline clip-path="url(#clip070)" style="stroke:#000000; stroke-linecap:butt; stroke-linejoin:round; stroke-width:4; stroke-opacity:1; fill:none" points="
  235.283,790.54 254.18,790.54 
  "></polyline>
<polyline clip-path="url(#clip070)" style="stroke:#000000; stroke-linecap:butt; stroke-linejoin:round; stroke-width:4; stroke-opacity:1; fill:none" points="
  235.283,554.116 254.18,554.116 
  "></polyline>
<polyline clip-path="url(#clip070)" style="stroke:#000000; stroke-linecap:butt; stroke-linejoin:round; stroke-width:4; stroke-opacity:1; fill:none" points="
  235.283,317.691 254.18,317.691 
  "></polyline>
<path clip-path="url(#clip070)" d="M117.825 1276.73 L125.464 1276.73 L125.464 1250.37 L117.154 1252.04 L117.154 1247.78 L125.418 1246.11 L130.093 1246.11 L130.093 1276.73 L137.732 1276.73 L137.732 1280.67 L117.825 1280.67 L117.825 1276.73 Z" fill="#000000" fill-rule="evenodd" fill-opacity="1"></path><path clip-path="url(#clip070)" d="M157.177 1249.19 Q153.566 1249.19 151.737 1252.75 Q149.931 1256.29 149.931 1263.42 Q149.931 1270.53 151.737 1274.1 Q153.566 1277.64 157.177 1277.64 Q160.811 1277.64 162.616 1274.1 Q164.445 1270.53 164.445 1263.42 Q164.445 1256.29 162.616 1252.75 Q160.811 1249.19 157.177 1249.19 M157.177 1245.48 Q162.987 1245.48 166.042 1250.09 Q169.121 1254.67 169.121 1263.42 Q169.121 1272.15 166.042 1276.76 Q162.987 1281.34 157.177 1281.34 Q151.366 1281.34 148.288 1276.76 Q145.232 1272.15 145.232 1263.42 Q145.232 1254.67 148.288 1250.09 Q151.366 1245.48 157.177 1245.48 Z" fill="#000000" fill-rule="evenodd" fill-opacity="1"></path><path clip-path="url(#clip070)" d="M187.338 1249.19 Q183.727 1249.19 181.899 1252.75 Q180.093 1256.29 180.093 1263.42 Q180.093 1270.53 181.899 1274.1 Q183.727 1277.64 187.338 1277.64 Q190.973 1277.64 192.778 1274.1 Q194.607 1270.53 194.607 1263.42 Q194.607 1256.29 192.778 1252.75 Q190.973 1249.19 187.338 1249.19 M187.338 1245.48 Q193.149 1245.48 196.204 1250.09 Q199.283 1254.67 199.283 1263.42 Q199.283 1272.15 196.204 1276.76 Q193.149 1281.34 187.338 1281.34 Q181.528 1281.34 178.45 1276.76 Q175.394 1272.15 175.394 1263.42 Q175.394 1254.67 178.45 1250.09 Q181.528 1245.48 187.338 1245.48 Z" fill="#000000" fill-rule="evenodd" fill-opacity="1"></path><path clip-path="url(#clip070)" d="M121.043 1040.31 L137.362 1040.31 L137.362 1044.24 L115.418 1044.24 L115.418 1040.31 Q118.08 1037.55 122.663 1032.93 Q127.269 1028.27 128.45 1026.93 Q130.695 1024.41 131.575 1022.67 Q132.478 1020.91 132.478 1019.22 Q132.478 1016.47 130.533 1014.73 Q128.612 1012.99 125.51 1012.99 Q123.311 1012.99 120.857 1013.76 Q118.427 1014.52 115.649 1016.07 L115.649 1011.35 Q118.473 1010.22 120.927 1009.64 Q123.38 1009.06 125.418 1009.06 Q130.788 1009.06 133.982 1011.74 Q137.177 1014.43 137.177 1018.92 Q137.177 1021.05 136.367 1022.97 Q135.579 1024.87 133.473 1027.46 Q132.894 1028.13 129.792 1031.35 Q126.691 1034.55 121.043 1040.31 Z" fill="#000000" fill-rule="evenodd" fill-opacity="1"></path><path clip-path="url(#clip070)" d="M157.177 1012.76 Q153.566 1012.76 151.737 1016.33 Q149.931 1019.87 149.931 1027 Q149.931 1034.11 151.737 1037.67 Q153.566 1041.21 157.177 1041.21 Q160.811 1041.21 162.616 1037.67 Q164.445 1034.11 164.445 1027 Q164.445 1019.87 162.616 1016.33 Q160.811 1012.76 157.177 1012.76 M157.177 1009.06 Q162.987 1009.06 166.042 1013.67 Q169.121 1018.25 169.121 1027 Q169.121 1035.73 166.042 1040.33 Q162.987 1044.92 157.177 1044.92 Q151.366 1044.92 148.288 1040.33 Q145.232 1035.73 145.232 1027 Q145.232 1018.25 148.288 1013.67 Q151.366 1009.06 157.177 1009.06 Z" fill="#000000" fill-rule="evenodd" fill-opacity="1"></path><path clip-path="url(#clip070)" d="M187.338 1012.76 Q183.727 1012.76 181.899 1016.33 Q180.093 1019.87 180.093 1027 Q180.093 1034.11 181.899 1037.67 Q183.727 1041.21 187.338 1041.21 Q190.973 1041.21 192.778 1037.67 Q194.607 1034.11 194.607 1027 Q194.607 1019.87 192.778 1016.33 Q190.973 1012.76 187.338 1012.76 M187.338 1009.06 Q193.149 1009.06 196.204 1013.67 Q199.283 1018.25 199.283 1027 Q199.283 1035.73 196.204 1040.33 Q193.149 1044.92 187.338 1044.92 Q181.528 1044.92 178.45 1040.33 Q175.394 1035.73 175.394 1027 Q175.394 1018.25 178.45 1013.67 Q181.528 1009.06 187.338 1009.06 Z" fill="#000000" fill-rule="evenodd" fill-opacity="1"></path><path clip-path="url(#clip070)" d="M131.181 789.186 Q134.538 789.904 136.413 792.172 Q138.311 794.441 138.311 797.774 Q138.311 802.89 134.792 805.691 Q131.274 808.492 124.793 808.492 Q122.617 808.492 120.302 808.052 Q118.01 807.635 115.556 806.779 L115.556 802.265 Q117.501 803.399 119.816 803.978 Q122.13 804.556 124.654 804.556 Q129.052 804.556 131.343 802.82 Q133.658 801.084 133.658 797.774 Q133.658 794.718 131.505 793.006 Q129.376 791.269 125.556 791.269 L121.529 791.269 L121.529 787.427 L125.742 787.427 Q129.191 787.427 131.019 786.061 Q132.848 784.672 132.848 782.08 Q132.848 779.418 130.95 778.006 Q129.075 776.57 125.556 776.57 Q123.635 776.57 121.436 776.987 Q119.237 777.404 116.598 778.283 L116.598 774.117 Q119.26 773.376 121.575 773.006 Q123.913 772.635 125.973 772.635 Q131.297 772.635 134.399 775.066 Q137.501 777.473 137.501 781.594 Q137.501 784.464 135.857 786.455 Q134.214 788.422 131.181 789.186 Z" fill="#000000" fill-rule="evenodd" fill-opacity="1"></path><path clip-path="url(#clip070)" d="M157.177 776.339 Q153.566 776.339 151.737 779.904 Q149.931 783.445 149.931 790.575 Q149.931 797.681 151.737 801.246 Q153.566 804.788 157.177 804.788 Q160.811 804.788 162.616 801.246 Q164.445 797.681 164.445 790.575 Q164.445 783.445 162.616 779.904 Q160.811 776.339 157.177 776.339 M157.177 772.635 Q162.987 772.635 166.042 777.242 Q169.121 781.825 169.121 790.575 Q169.121 799.302 166.042 803.908 Q162.987 808.492 157.177 808.492 Q151.366 808.492 148.288 803.908 Q145.232 799.302 145.232 790.575 Q145.232 781.825 148.288 777.242 Q151.366 772.635 157.177 772.635 Z" fill="#000000" fill-rule="evenodd" fill-opacity="1"></path><path clip-path="url(#clip070)" d="M187.338 776.339 Q183.727 776.339 181.899 779.904 Q180.093 783.445 180.093 790.575 Q180.093 797.681 181.899 801.246 Q183.727 804.788 187.338 804.788 Q190.973 804.788 192.778 801.246 Q194.607 797.681 194.607 790.575 Q194.607 783.445 192.778 779.904 Q190.973 776.339 187.338 776.339 M187.338 772.635 Q193.149 772.635 196.204 777.242 Q199.283 781.825 199.283 790.575 Q199.283 799.302 196.204 803.908 Q193.149 808.492 187.338 808.492 Q181.528 808.492 178.45 803.908 Q175.394 799.302 175.394 790.575 Q175.394 781.825 178.45 777.242 Q181.528 772.635 187.338 772.635 Z" fill="#000000" fill-rule="evenodd" fill-opacity="1"></path><path clip-path="url(#clip070)" d="M129.862 540.91 L118.056 559.359 L129.862 559.359 L129.862 540.91 M128.635 536.836 L134.515 536.836 L134.515 559.359 L139.445 559.359 L139.445 563.248 L134.515 563.248 L134.515 571.396 L129.862 571.396 L129.862 563.248 L114.26 563.248 L114.26 558.734 L128.635 536.836 Z" fill="#000000" fill-rule="evenodd" fill-opacity="1"></path><path clip-path="url(#clip070)" d="M157.177 539.914 Q153.566 539.914 151.737 543.479 Q149.931 547.021 149.931 554.151 Q149.931 561.257 151.737 564.822 Q153.566 568.363 157.177 568.363 Q160.811 568.363 162.616 564.822 Q164.445 561.257 164.445 554.151 Q164.445 547.021 162.616 543.479 Q160.811 539.914 157.177 539.914 M157.177 536.211 Q162.987 536.211 166.042 540.817 Q169.121 545.401 169.121 554.151 Q169.121 562.877 166.042 567.484 Q162.987 572.067 157.177 572.067 Q151.366 572.067 148.288 567.484 Q145.232 562.877 145.232 554.151 Q145.232 545.401 148.288 540.817 Q151.366 536.211 157.177 536.211 Z" fill="#000000" fill-rule="evenodd" fill-opacity="1"></path><path clip-path="url(#clip070)" d="M187.338 539.914 Q183.727 539.914 181.899 543.479 Q180.093 547.021 180.093 554.151 Q180.093 561.257 181.899 564.822 Q183.727 568.363 187.338 568.363 Q190.973 568.363 192.778 564.822 Q194.607 561.257 194.607 554.151 Q194.607 547.021 192.778 543.479 Q190.973 539.914 187.338 539.914 M187.338 536.211 Q193.149 536.211 196.204 540.817 Q199.283 545.401 199.283 554.151 Q199.283 562.877 196.204 567.484 Q193.149 572.067 187.338 572.067 Q181.528 572.067 178.45 567.484 Q175.394 562.877 175.394 554.151 Q175.394 545.401 178.45 540.817 Q181.528 536.211 187.338 536.211 Z" fill="#000000" fill-rule="evenodd" fill-opacity="1"></path><path clip-path="url(#clip070)" d="M117.061 300.411 L135.417 300.411 L135.417 304.347 L121.343 304.347 L121.343 312.819 Q122.362 312.471 123.38 312.309 Q124.399 312.124 125.418 312.124 Q131.205 312.124 134.584 315.296 Q137.964 318.467 137.964 323.883 Q137.964 329.462 134.492 332.564 Q131.019 335.643 124.7 335.643 Q122.524 335.643 120.255 335.272 Q118.01 334.902 115.603 334.161 L115.603 329.462 Q117.686 330.596 119.908 331.152 Q122.13 331.707 124.607 331.707 Q128.612 331.707 130.95 329.601 Q133.288 327.495 133.288 323.883 Q133.288 320.272 130.95 318.166 Q128.612 316.059 124.607 316.059 Q122.732 316.059 120.857 316.476 Q119.006 316.893 117.061 317.772 L117.061 300.411 Z" fill="#000000" fill-rule="evenodd" fill-opacity="1"></path><path clip-path="url(#clip070)" d="M157.177 303.49 Q153.566 303.49 151.737 307.055 Q149.931 310.596 149.931 317.726 Q149.931 324.833 151.737 328.397 Q153.566 331.939 157.177 331.939 Q160.811 331.939 162.616 328.397 Q164.445 324.833 164.445 317.726 Q164.445 310.596 162.616 307.055 Q160.811 303.49 157.177 303.49 M157.177 299.786 Q162.987 299.786 166.042 304.393 Q169.121 308.976 169.121 317.726 Q169.121 326.453 166.042 331.059 Q162.987 335.643 157.177 335.643 Q151.366 335.643 148.288 331.059 Q145.232 326.453 145.232 317.726 Q145.232 308.976 148.288 304.393 Q151.366 299.786 157.177 299.786 Z" fill="#000000" fill-rule="evenodd" fill-opacity="1"></path><path clip-path="url(#clip070)" d="M187.338 303.49 Q183.727 303.49 181.899 307.055 Q180.093 310.596 180.093 317.726 Q180.093 324.833 181.899 328.397 Q183.727 331.939 187.338 331.939 Q190.973 331.939 192.778 328.397 Q194.607 324.833 194.607 317.726 Q194.607 310.596 192.778 307.055 Q190.973 303.49 187.338 303.49 M187.338 299.786 Q193.149 299.786 196.204 304.393 Q199.283 308.976 199.283 317.726 Q199.283 326.453 196.204 331.059 Q193.149 335.643 187.338 335.643 Q181.528 335.643 178.45 331.059 Q175.394 326.453 175.394 317.726 Q175.394 308.976 178.45 304.393 Q181.528 299.786 187.338 299.786 Z" fill="#000000" fill-rule="evenodd" fill-opacity="1"></path><path clip-path="url(#clip070)" d="M22.818 934.776 L46.4666 943.497 L46.4666 926.023 L22.818 934.776 M16.4842 938.405 L16.4842 931.116 L64.0042 913.006 L64.0042 919.689 L51.8138 924.018 L51.8138 945.439 L64.0042 949.767 L64.0042 956.547 L16.4842 938.405 Z" fill="#000000" fill-rule="evenodd" fill-opacity="1"></path><path clip-path="url(#clip070)" d="M16.4842 906.799 L16.4842 900.338 L45.3526 900.338 Q52.9915 900.338 56.3653 897.569 Q59.7073 894.8 59.7073 888.593 Q59.7073 882.418 56.3653 879.649 Q52.9915 876.88 45.3526 876.88 L16.4842 876.88 L16.4842 870.419 L46.1484 870.419 Q55.4423 870.419 60.1847 875.034 Q64.9272 879.617 64.9272 888.593 Q64.9272 897.6 60.1847 902.216 Q55.4423 906.799 46.1484 906.799 L16.4842 906.799 Z" fill="#000000" fill-rule="evenodd" fill-opacity="1"></path><path clip-path="url(#clip070)" d="M20.1444 822.772 L26.9239 822.772 Q23.9002 826.018 22.4043 829.71 Q20.9083 833.371 20.9083 837.508 Q20.9083 845.656 25.9054 849.985 Q30.8707 854.314 40.2919 854.314 Q49.6813 854.314 54.6784 849.985 Q59.6436 845.656 59.6436 837.508 Q59.6436 833.371 58.1477 829.71 Q56.6518 826.018 53.6281 822.772 L60.3439 822.772 Q62.6355 826.145 63.7814 829.933 Q64.9272 833.689 64.9272 837.89 Q64.9272 848.68 58.3387 854.887 Q51.7183 861.093 40.2919 861.093 Q28.8336 861.093 22.2451 854.887 Q15.6248 848.68 15.6248 837.89 Q15.6248 833.625 16.7706 829.869 Q17.8846 826.082 20.1444 822.772 Z" fill="#000000" fill-rule="evenodd" fill-opacity="1"></path><path clip-path="url(#clip070)" d="M14.5426 778.307 Q21.8632 782.572 29.0246 784.641 Q36.186 786.71 43.5384 786.71 Q50.8908 786.71 58.1159 784.641 Q65.3091 782.54 72.5979 778.307 L72.5979 783.4 Q65.1182 788.174 57.8931 790.561 Q50.668 792.916 43.5384 792.916 Q36.4406 792.916 29.2474 790.561 Q22.0542 788.206 14.5426 783.4 L14.5426 778.307 Z" fill="#000000" fill-rule="evenodd" fill-opacity="1"></path><path clip-path="url(#clip070)" d="M35.1993 739.19 Q31.2526 736.994 29.3747 733.938 Q27.4968 730.883 27.4968 726.745 Q27.4968 721.175 31.4117 718.151 Q35.2948 715.128 42.4881 715.128 L64.0042 715.128 L64.0042 721.016 L42.679 721.016 Q37.5546 721.016 35.072 722.83 Q32.5894 724.644 32.5894 728.368 Q32.5894 732.92 35.6131 735.561 Q38.6368 738.203 43.8567 738.203 L64.0042 738.203 L64.0042 744.091 L42.679 744.091 Q37.5228 744.091 35.072 745.906 Q32.5894 747.72 32.5894 751.508 Q32.5894 755.995 35.6449 758.637 Q38.6686 761.279 43.8567 761.279 L64.0042 761.279 L64.0042 767.167 L28.3562 767.167 L28.3562 761.279 L33.8944 761.279 Q30.616 759.274 29.0564 756.473 Q27.4968 753.672 27.4968 749.821 Q27.4968 745.938 29.4702 743.232 Q31.4436 740.495 35.1993 739.19 Z" fill="#000000" fill-rule="evenodd" fill-opacity="1"></path><path clip-path="url(#clip070)" d="M45.7664 679.989 Q39.4007 679.989 35.8996 682.631 Q32.3984 685.241 32.3984 689.983 Q32.3984 694.694 35.8996 697.335 Q39.4007 699.945 45.7664 699.945 Q52.1003 699.945 55.6014 697.335 Q59.1026 694.694 59.1026 689.983 Q59.1026 685.241 55.6014 682.631 Q52.1003 679.989 45.7664 679.989 M59.58 674.132 Q68.683 674.132 73.1071 678.175 Q77.5631 682.217 77.5631 690.556 Q77.5631 693.643 77.0857 696.381 Q76.6401 699.118 75.6852 701.696 L69.9879 701.696 Q71.3884 699.118 72.0568 696.603 Q72.7252 694.089 72.7252 691.479 Q72.7252 685.718 69.7015 682.853 Q66.7096 679.989 60.6303 679.989 L57.7339 679.989 Q60.885 681.803 62.4446 684.636 Q64.0042 687.469 64.0042 691.415 Q64.0042 697.972 59.0071 701.982 Q54.01 705.993 45.7664 705.993 Q37.491 705.993 32.4939 701.982 Q27.4968 697.972 27.4968 691.415 Q27.4968 687.469 29.0564 684.636 Q30.616 681.803 33.7671 679.989 L28.3562 679.989 L28.3562 674.132 L59.58 674.132 Z" fill="#000000" fill-rule="evenodd" fill-opacity="1"></path><path clip-path="url(#clip070)" d="M16.4842 651.661 L16.4842 646.251 L70.0516 662.801 L70.0516 668.212 L16.4842 651.661 Z" fill="#000000" fill-rule="evenodd" fill-opacity="1"></path><path clip-path="url(#clip070)" d="M16.4842 639.853 L16.4842 633.424 L58.5933 633.424 L58.5933 610.284 L64.0042 610.284 L64.0042 639.853 L16.4842 639.853 Z" fill="#000000" fill-rule="evenodd" fill-opacity="1"></path><path clip-path="url(#clip070)" d="M14.5426 604.714 L14.5426 599.622 Q22.0542 594.847 29.2474 592.492 Q36.4406 590.105 43.5384 590.105 Q50.668 590.105 57.8931 592.492 Q65.1182 594.847 72.5979 599.622 L72.5979 604.714 Q65.3091 600.481 58.1159 598.412 Q50.8908 596.312 43.5384 596.312 Q36.186 596.312 29.0246 598.412 Q21.8632 600.481 14.5426 604.714 Z" fill="#000000" fill-rule="evenodd" fill-opacity="1"></path><path clip-path="url(#clip070)" d="M1079.48 20.1573 L1068.38 50.2555 L1090.62 50.2555 L1079.48 20.1573 M1074.87 12.096 L1084.14 12.096 L1107.19 72.576 L1098.68 72.576 L1093.18 57.061 L1065.91 57.061 L1060.4 72.576 L1051.78 72.576 L1074.87 12.096 Z" fill="#000000" fill-rule="evenodd" fill-opacity="1"></path><path clip-path="url(#clip070)" d="M1115.09 12.096 L1123.31 12.096 L1123.31 48.8377 Q1123.31 58.5599 1126.84 62.8538 Q1130.36 67.1073 1138.26 67.1073 Q1146.12 67.1073 1149.65 62.8538 Q1153.17 58.5599 1153.17 48.8377 L1153.17 12.096 L1161.39 12.096 L1161.39 49.8504 Q1161.39 61.6791 1155.52 67.7149 Q1149.69 73.7508 1138.26 73.7508 Q1126.8 73.7508 1120.92 67.7149 Q1115.09 61.6791 1115.09 49.8504 L1115.09 12.096 Z" fill="#000000" fill-rule="evenodd" fill-opacity="1"></path><path clip-path="url(#clip070)" d="M1222.03 16.7545 L1222.03 25.383 Q1217.9 21.5346 1213.2 19.6307 Q1208.55 17.7268 1203.28 17.7268 Q1192.91 17.7268 1187.4 24.0867 Q1181.89 30.4061 1181.89 42.3968 Q1181.89 54.3469 1187.4 60.7069 Q1192.91 67.0263 1203.28 67.0263 Q1208.55 67.0263 1213.2 65.1223 Q1217.9 63.2184 1222.03 59.3701 L1222.03 67.9175 Q1217.74 70.8341 1212.92 72.2924 Q1208.14 73.7508 1202.79 73.7508 Q1189.06 73.7508 1181.16 65.3654 Q1173.26 56.9395 1173.26 42.3968 Q1173.26 27.8135 1181.16 19.4281 Q1189.06 11.0023 1202.79 11.0023 Q1208.22 11.0023 1213 12.4606 Q1217.82 13.8784 1222.03 16.7545 Z" fill="#000000" fill-rule="evenodd" fill-opacity="1"></path><path clip-path="url(#clip070)" d="M1283.69 9.54393 L1283.69 15.7418 L1276.56 15.7418 Q1272.55 15.7418 1270.97 17.3622 Q1269.43 18.9825 1269.43 23.1955 L1269.43 27.2059 L1281.7 27.2059 L1281.7 32.9987 L1269.43 32.9987 L1269.43 72.576 L1261.94 72.576 L1261.94 32.9987 L1254.81 32.9987 L1254.81 27.2059 L1261.94 27.2059 L1261.94 24.0462 Q1261.94 16.471 1265.46 13.0277 Q1268.98 9.54393 1276.64 9.54393 L1283.69 9.54393 Z" fill="#000000" fill-rule="evenodd" fill-opacity="1"></path><path clip-path="url(#clip070)" d="M1307.51 32.4315 Q1301.51 32.4315 1298.03 37.1306 Q1294.55 41.7891 1294.55 49.9314 Q1294.55 58.0738 1297.99 62.7728 Q1301.47 67.4314 1307.51 67.4314 Q1313.46 67.4314 1316.95 62.7323 Q1320.43 58.0333 1320.43 49.9314 Q1320.43 41.8701 1316.95 37.1711 Q1313.46 32.4315 1307.51 32.4315 M1307.51 26.1121 Q1317.23 26.1121 1322.78 32.4315 Q1328.33 38.7509 1328.33 49.9314 Q1328.33 61.0714 1322.78 67.4314 Q1317.23 73.7508 1307.51 73.7508 Q1297.75 73.7508 1292.2 67.4314 Q1286.69 61.0714 1286.69 49.9314 Q1286.69 38.7509 1292.2 32.4315 Q1297.75 26.1121 1307.51 26.1121 Z" fill="#000000" fill-rule="evenodd" fill-opacity="1"></path><path clip-path="url(#clip070)" d="M1366.98 34.1734 Q1365.72 33.4443 1364.22 33.1202 Q1362.76 32.7556 1360.98 32.7556 Q1354.66 32.7556 1351.26 36.8875 Q1347.9 40.9789 1347.9 48.6757 L1347.9 72.576 L1340.4 72.576 L1340.4 27.2059 L1347.9 27.2059 L1347.9 34.2544 Q1350.25 30.1225 1354.01 28.1376 Q1357.78 26.1121 1363.17 26.1121 Q1363.94 26.1121 1364.87 26.2337 Q1365.8 26.3147 1366.94 26.5172 L1366.98 34.1734 Z" fill="#000000" fill-rule="evenodd" fill-opacity="1"></path><path clip-path="url(#clip070)" d="M1401.49 12.096 L1409.67 12.096 L1409.67 36.8875 L1439.41 36.8875 L1439.41 12.096 L1447.59 12.096 L1447.59 72.576 L1439.41 72.576 L1439.41 43.7741 L1409.67 43.7741 L1409.67 72.576 L1401.49 72.576 L1401.49 12.096 Z" fill="#000000" fill-rule="evenodd" fill-opacity="1"></path><path clip-path="url(#clip070)" d="M1463.87 12.096 L1472.06 12.096 L1472.06 72.576 L1463.87 72.576 L1463.87 12.096 Z" fill="#000000" fill-rule="evenodd" fill-opacity="1"></path><path clip-path="url(#clip070)" d="M1503.94 72.576 L1480.85 12.096 L1489.39 12.096 L1508.56 63.0159 L1527.76 12.096 L1536.26 12.096 L1513.21 72.576 L1503.94 72.576 Z" fill="#000000" fill-rule="evenodd" fill-opacity="1"></path><path clip-path="url(#clip072)" d="
M739.126 1072.42 L517.169 1072.42 L961.083 1072.42 L739.126 1072.42 L739.126 852.649 L739.126 1072.42  Z
  " fill="#009af9" fill-rule="evenodd" fill-opacity="1"></path>
<polyline clip-path="url(#clip072)" style="stroke:#000000; stroke-linecap:butt; stroke-linejoin:round; stroke-width:4; stroke-opacity:1; fill:none" points="
  739.126,1072.42 517.169,1072.42 961.083,1072.42 739.126,1072.42 739.126,852.649 739.126,1072.42 
  "></polyline>
<path clip-path="url(#clip072)" d="
M1183.04 852.649 L1183.04 749.728 L295.211 749.728 L295.211 852.649 L1183.04 852.649 L1183.04 749.728 L1183.04 852.649  Z
  " fill="#009af9" fill-rule="evenodd" fill-opacity="1"></path>
<polyline clip-path="url(#clip072)" style="stroke:#000000; stroke-linecap:butt; stroke-linejoin:round; stroke-width:4; stroke-opacity:1; fill:none" points="
  1183.04,852.649 1183.04,749.728 295.211,749.728 295.211,852.649 1183.04,852.649 1183.04,749.728 1183.04,852.649 
  "></polyline>
<path clip-path="url(#clip072)" d="
M1183.04 624.12 L295.211 624.12 L295.211 749.728 L1183.04 749.728 L1183.04 624.12 L739.126 624.12 L1183.04 624.12  Z
  " fill="#009af9" fill-rule="evenodd" fill-opacity="1"></path>
<polyline clip-path="url(#clip072)" style="stroke:#000000; stroke-linecap:butt; stroke-linejoin:round; stroke-width:4; stroke-opacity:1; fill:none" points="
  1183.04,624.12 295.211,624.12 295.211,749.728 1183.04,749.728 1183.04,624.12 739.126,624.12 1183.04,624.12 
  "></polyline>
<path clip-path="url(#clip072)" d="
M739.126 369.906 L517.169 369.906 L961.083 369.906 L739.126 369.906 L739.126 624.12 L739.126 369.906  Z
  " fill="#009af9" fill-rule="evenodd" fill-opacity="1"></path>
<polyline clip-path="url(#clip072)" style="stroke:#000000; stroke-linecap:butt; stroke-linejoin:round; stroke-width:4; stroke-opacity:1; fill:none" points="
  739.126,369.906 517.169,369.906 961.083,369.906 739.126,369.906 739.126,624.12 739.126,369.906 
  "></polyline>
<circle clip-path="url(#clip072)" cx="739.126" cy="160.256" r="14" fill="#009af9" fill-rule="evenodd" fill-opacity="1" stroke="#000000" stroke-opacity="1" stroke-width="3.2"></circle>
<polyline clip-path="url(#clip072)" style="stroke:#009af9; stroke-linecap:butt; stroke-linejoin:round; stroke-width:0; stroke-opacity:1; fill:none" points="
  739.126,1072.42 517.169,1072.42 961.083,1072.42 739.126,1072.42 739.126,852.649 
  "></polyline>
<polyline clip-path="url(#clip072)" style="stroke:#009af9; stroke-linecap:butt; stroke-linejoin:round; stroke-width:0; stroke-opacity:1; fill:none" points="
  1183.04,852.649 1183.04,749.728 295.211,749.728 295.211,852.649 1183.04,852.649 1183.04,749.728 
  "></polyline>
<polyline clip-path="url(#clip072)" style="stroke:#009af9; stroke-linecap:butt; stroke-linejoin:round; stroke-width:0; stroke-opacity:1; fill:none" points="
  1183.04,624.12 295.211,624.12 295.211,749.728 1183.04,749.728 1183.04,624.12 739.126,624.12 
  "></polyline>
<polyline clip-path="url(#clip072)" style="stroke:#009af9; stroke-linecap:butt; stroke-linejoin:round; stroke-width:0; stroke-opacity:1; fill:none" points="
  739.126,369.906 517.169,369.906 961.083,369.906 739.126,369.906 739.126,624.12 
  "></polyline>
<path clip-path="url(#clip072)" d="
M1848.91 1105.72 L1626.96 1105.72 L2070.87 1105.72 L1848.91 1105.72 L1848.91 857.094 L1848.91 1105.72  Z
  " fill="#e26f46" fill-rule="evenodd" fill-opacity="1"></path>
<polyline clip-path="url(#clip072)" style="stroke:#000000; stroke-linecap:butt; stroke-linejoin:round; stroke-width:4; stroke-opacity:1; fill:none" points="
  1848.91,1105.72 1626.96,1105.72 2070.87,1105.72 1848.91,1105.72 1848.91,857.094 1848.91,1105.72 
  "></polyline>
<path clip-path="url(#clip072)" d="
M2292.83 857.094 L2292.83 753.8 L1405 753.8 L1405 857.094 L2292.83 857.094 L2292.83 753.8 L2292.83 857.094  Z
  " fill="#e26f46" fill-rule="evenodd" fill-opacity="1"></path>
<polyline clip-path="url(#clip072)" style="stroke:#000000; stroke-linecap:butt; stroke-linejoin:round; stroke-width:4; stroke-opacity:1; fill:none" points="
  2292.83,857.094 2292.83,753.8 1405,753.8 1405,857.094 2292.83,857.094 2292.83,753.8 2292.83,857.094 
  "></polyline>
<path clip-path="url(#clip072)" d="
M2292.83 621.586 L1405 621.586 L1405 753.8 L2292.83 753.8 L2292.83 621.586 L1848.91 621.586 L2292.83 621.586  Z
  " fill="#e26f46" fill-rule="evenodd" fill-opacity="1"></path>
<polyline clip-path="url(#clip072)" style="stroke:#000000; stroke-linecap:butt; stroke-linejoin:round; stroke-width:4; stroke-opacity:1; fill:none" points="
  2292.83,621.586 1405,621.586 1405,753.8 2292.83,753.8 2292.83,621.586 1848.91,621.586 2292.83,621.586 
  "></polyline>
<path clip-path="url(#clip072)" d="
M1848.91 387.234 L1626.96 387.234 L2070.87 387.234 L1848.91 387.234 L1848.91 621.586 L1848.91 387.234  Z
  " fill="#e26f46" fill-rule="evenodd" fill-opacity="1"></path>
<polyline clip-path="url(#clip072)" style="stroke:#000000; stroke-linecap:butt; stroke-linejoin:round; stroke-width:4; stroke-opacity:1; fill:none" points="
  1848.91,387.234 1626.96,387.234 2070.87,387.234 1848.91,387.234 1848.91,621.586 1848.91,387.234 
  "></polyline>
<circle clip-path="url(#clip072)" cx="1848.91" cy="1386.4" r="14" fill="#e26f46" fill-rule="evenodd" fill-opacity="1" stroke="#000000" stroke-opacity="1" stroke-width="3.2"></circle>
<circle clip-path="url(#clip072)" cx="1848.91" cy="1300.65" r="14" fill="#e26f46" fill-rule="evenodd" fill-opacity="1" stroke="#000000" stroke-opacity="1" stroke-width="3.2"></circle>
<polyline clip-path="url(#clip072)" style="stroke:#e26f46; stroke-linecap:butt; stroke-linejoin:round; stroke-width:0; stroke-opacity:1; fill:none" points="
  1848.91,1105.72 1626.96,1105.72 2070.87,1105.72 1848.91,1105.72 1848.91,857.094 
  "></polyline>
<polyline clip-path="url(#clip072)" style="stroke:#e26f46; stroke-linecap:butt; stroke-linejoin:round; stroke-width:0; stroke-opacity:1; fill:none" points="
  2292.83,857.094 2292.83,753.8 1405,753.8 1405,857.094 2292.83,857.094 2292.83,753.8 
  "></polyline>
<polyline clip-path="url(#clip072)" style="stroke:#e26f46; stroke-linecap:butt; stroke-linejoin:round; stroke-width:0; stroke-opacity:1; fill:none" points="
  2292.83,621.586 1405,621.586 1405,753.8 2292.83,753.8 2292.83,621.586 1848.91,621.586 
  "></polyline>
<polyline clip-path="url(#clip072)" style="stroke:#e26f46; stroke-linecap:butt; stroke-linejoin:round; stroke-width:0; stroke-opacity:1; fill:none" points="
  1848.91,387.234 1626.96,387.234 2070.87,387.234 1848.91,387.234 1848.91,621.586 
  "></polyline>
</svg>